<svg xmlns="http://www.w3.org/2000/svg" xmlns:xlink="http://www.w3.org/1999/xlink" width="1214" height="254" viewBox="0 0 1214 254">
    <defs>
        <linearGradient id="e" x1="-9.36%" x2="119.419%" y1="91.846%" y2="-17.45%">
            <stop offset="0%" stop-color="#D13B47"/>
            <stop offset="100%" stop-color="#F98572"/>
        </linearGradient>
        <rect id="d" width="1214" height="254" x="0" y="0" rx="5"/>
        <filter id="c" width="108.3%" height="150.5%" x="-4.2%" y="-25.3%" filterUnits="objectBoundingBox">
            <feOffset in="SourceAlpha" result="shadowOffsetOuter1"/>
            <feGaussianBlur in="shadowOffsetOuter1" result="shadowBlurOuter1" stdDeviation="16"/>
            <feComposite in="shadowBlurOuter1" in2="SourceAlpha" operator="out" result="shadowBlurOuter1"/>
            <feColorMatrix in="shadowBlurOuter1" values="0 0 0 0 0.945098039 0 0 0 0 0.533333333 0 0 0 0 0.501960784 0 0 0 0.243999094 0"/>
        </filter>
        <path id="g" d="M194.882 140c3.767-10.682 8.118-25.887 8.118-37.868C203 45.726 157.557 0 101.5 0S0 45.726 0 102.132C0 115.512 2.557 128.29 7.206 140"/>
        <filter id="f" width="122.7%" height="132.9%" x="-10.3%" y="-13.6%" filterUnits="objectBoundingBox">
            <feOffset dx="2" dy="4" in="SourceAlpha" result="shadowOffsetOuter1"/>
            <feMorphology in="SourceAlpha" radius="2.4" result="shadowInner"/>
            <feOffset dx="2" dy="4" in="shadowInner" result="shadowInner"/>
            <feComposite in="shadowOffsetOuter1" in2="shadowInner" operator="out" result="shadowOffsetOuter1"/>
            <feGaussianBlur in="shadowOffsetOuter1" result="shadowBlurOuter1" stdDeviation="7"/>
            <feColorMatrix in="shadowBlurOuter1" values="0 0 0 0 0.753427934 0 0 0 0 0.216583776 0 0 0 0 0.30674081 0 0 0 1 0"/>
        </filter>
        <path id="a" d="M181.793 67.284C171.246 28.6 135.265.112 92.5.112 41.456.112.077 40.698.077 90.762c0 11.875 2.328 23.217 6.561 33.61"/>
        <filter id="h" width="113.2%" height="119.3%" x="-6.6%" y="-9.7%" filterUnits="objectBoundingBox">
            <feOffset in="SourceAlpha" result="shadowOffsetOuter1"/>
            <feMorphology in="SourceAlpha" radius="1.92" result="shadowInner"/>
            <feOffset in="shadowInner" result="shadowInner"/>
            <feComposite in="shadowOffsetOuter1" in2="shadowInner" operator="out" result="shadowOffsetOuter1"/>
            <feGaussianBlur in="shadowOffsetOuter1" result="shadowBlurOuter1" stdDeviation="4"/>
            <feColorMatrix in="shadowBlurOuter1" values="0 0 0 0 0.783960459 0 0 0 0 0.188396117 0 0 0 0 0.249359396 0 0 0 1 0"/>
        </filter>
        <mask id="i" width="181.716" height="124.26" x="0" y="0" fill="#fff">
            <use xlink:href="#a"/>
        </mask>
        <path id="j" d="M105 45.636L.14.427c3.708 19.606 7.195 33.39 10.461 41.351L105 45.636z"/>
        <path id="m" d="M194.882 140c3.767-10.682 8.118-25.887 8.118-37.868C203 45.726 157.557 0 101.5 0S0 45.726 0 102.132C0 115.512 2.557 128.29 7.206 140"/>
        <filter id="l" width="122.7%" height="132.9%" x="-10.3%" y="-13.6%" filterUnits="objectBoundingBox">
            <feOffset dx="2" dy="4" in="SourceAlpha" result="shadowOffsetOuter1"/>
            <feMorphology in="SourceAlpha" radius="2.4" result="shadowInner"/>
            <feOffset dx="2" dy="4" in="shadowInner" result="shadowInner"/>
            <feComposite in="shadowOffsetOuter1" in2="shadowInner" operator="out" result="shadowOffsetOuter1"/>
            <feGaussianBlur in="shadowOffsetOuter1" result="shadowBlurOuter1" stdDeviation="7"/>
            <feColorMatrix in="shadowBlurOuter1" values="0 0 0 0 0.753427934 0 0 0 0 0.216583776 0 0 0 0 0.30674081 0 0 0 1 0"/>
        </filter>
        <path id="b" d="M181.793 67.284C171.246 28.6 135.265.112 92.5.112 41.456.112.077 40.698.077 90.762c0 11.875 2.328 23.217 6.561 33.61"/>
        <filter id="n" width="113.2%" height="119.3%" x="-6.6%" y="-9.7%" filterUnits="objectBoundingBox">
            <feOffset in="SourceAlpha" result="shadowOffsetOuter1"/>
            <feMorphology in="SourceAlpha" radius="1.92" result="shadowInner"/>
            <feOffset in="shadowInner" result="shadowInner"/>
            <feComposite in="shadowOffsetOuter1" in2="shadowInner" operator="out" result="shadowOffsetOuter1"/>
            <feGaussianBlur in="shadowOffsetOuter1" result="shadowBlurOuter1" stdDeviation="4"/>
            <feColorMatrix in="shadowBlurOuter1" values="0 0 0 0 0.783960459 0 0 0 0 0.188396117 0 0 0 0 0.249359396 0 0 0 1 0"/>
        </filter>
        <mask id="o" width="181.716" height="124.26" x="0" y="0" fill="#fff">
            <use xlink:href="#b"/>
        </mask>
        <circle id="q" cx="13" cy="113" r="6"/>
        <filter id="p" width="516.7%" height="516.7%" x="-208.3%" y="-191.7%" filterUnits="objectBoundingBox">
            <feOffset dy="2" in="SourceAlpha" result="shadowOffsetOuter1"/>
            <feGaussianBlur in="shadowOffsetOuter1" result="shadowBlurOuter1" stdDeviation="8"/>
            <feColorMatrix in="shadowBlurOuter1" values="0 0 0 0 0.863839286 0 0 0 0 0.197673451 0 0 0 0 0.314633865 0 0 0 1 0"/>
        </filter>
    </defs>
    <g fill="none" fill-rule="evenodd">
        <g>
            <use fill="#000" filter="url(#c)" xlink:href="#d"/>
            <use fill="url(#e)" fill-opacity=".88" xlink:href="#d"/>
        </g>
        <g opacity=".847">
            <g opacity=".35" transform="translate(95 57)">
                <use fill="#000" filter="url(#f)" xlink:href="#g"/>
                <path stroke="#F9F9FA" stroke-width="2.4" d="M194.031 138.8c4.732-13.587 7.769-26.707 7.769-36.668C201.8 46.387 156.892 1.2 101.5 1.2 46.108 1.2 1.2 46.387 1.2 102.132c0 12.707 2.334 25.086 6.824 36.668H194.03z"/>
            </g>
            <g opacity=".381">
                <g stroke-dasharray="1.636956405639649,3.273912811279297" opacity=".7" transform="translate(104 66)">
                    <use fill="#000" filter="url(#h)" xlink:href="#a"/>
                    <use stroke="#FFF" stroke-width="3.84" mask="url(#i)" xlink:href="#a"/>
                </g>
                <path stroke="#F0BFC2" stroke-dasharray="1.641600036621094,3.273600006103516" stroke-width="1.92" d="M282.815 187.4a86.123 86.123 0 0 0 5.594-30.588c0-7.374-.931-14.544-2.69-21.412"/>
            </g>
        </g>
        <g transform="translate(91 156)">
            <mask id="k" fill="#fff">
                <use xlink:href="#j"/>
            </mask>
            <g mask="url(#k)">
                <g transform="translate(4 -99)">
                    <use fill="#000" filter="url(#l)" xlink:href="#m"/>
                    <path stroke="#FFF" stroke-width="2.4" d="M194.031 138.8c4.732-13.587 7.769-26.707 7.769-36.668C201.8 46.387 156.892 1.2 101.5 1.2 46.108 1.2 1.2 46.387 1.2 102.132c0 12.707 2.334 25.086 6.824 36.668H194.03z"/>
                </g>
                <g stroke-dasharray="1.636956405639649,3.273912811279297" opacity=".7" transform="translate(13 -90)">
                    <use fill="#000" filter="url(#n)" xlink:href="#b"/>
                    <use stroke="#FFF" stroke-width="3.84" mask="url(#o)" xlink:href="#b"/>
                </g>
                <path stroke="#F0BFC2" stroke-dasharray="1.641600036621094,3.273600006103516" stroke-width="1.92" d="M191.815 31.4A86.123 86.123 0 0 0 197.409.812c0-7.374-.931-14.544-2.69-21.412"/>
            </g>
        </g>
        <g transform="translate(83 47)">
            <use fill="#000" filter="url(#p)" xlink:href="#q"/>
            <use fill="#FFF" xlink:href="#q"/>
        </g>
    </g>
</svg>
