<?xml version="1.0" encoding="UTF-8"?>
<svg width="18px" height="18px" viewBox="0 0 18 18" version="1.1" xmlns="http://www.w3.org/2000/svg" xmlns:xlink="http://www.w3.org/1999/xlink">
    <!-- Generator: Sketch 42 (36781) - http://www.bohemiancoding.com/sketch -->
    <title>Fill 112</title>
    <desc>Created with Sketch.</desc>
    <defs></defs>
    <g id="5月-框架redesign" stroke="none" stroke-width="1" fill="none" fill-rule="evenodd">
        <g id="IDEA-2:-CONTENT+SIDEBARS-Copy-5" transform="translate(-1324.000000, -22.000000)">
            <g id="Group-12" transform="translate(1324.000000, 22.000000)">
                <path d="M9,18 C10.0352941,18 10.8823529,17.1899797 10.8823529,16.199955 L7.11764706,16.199955 C7.11764706,17.1899797 7.96470588,18 9,18 L9,18 Z M15.1176471,12.599865 L15.1176471,7.64974124 C15.1176471,4.88667217 13.1129412,2.57361434 10.4117647,1.96159904 L10.4117647,1.35003375 C10.4117647,0.602565064 9.78117647,0 9,0 C8.21882353,0 7.58823529,0.602565064 7.58823529,1.35003375 L7.58823529,1.96159904 C4.88705882,2.57361434 2.88235294,4.88667217 2.88235294,7.64974124 L2.88235294,12.599865 L1,14.39991 L1,15.2999325 L17,15.2999325 L17,14.39991 L15.1176471,12.599865 L15.1176471,12.599865 Z" id="Fill-112" fill="#FFFFFF"></path>
                <path d="M9,18 C10.0352941,18 10.8823529,17.1899797 10.8823529,16.199955 L7.11764706,16.199955 C7.11764706,17.1899797 7.96470588,18 9,18 L9,18 Z M15.1176471,12.599865 L15.1176471,7.64974124 C15.1176471,4.88667217 13.1129412,2.57361434 10.4117647,1.96159904 L10.4117647,1.35003375 C10.4117647,0.602565064 9.78117647,0 9,0 C8.21882353,0 7.58823529,0.602565064 7.58823529,1.35003375 L7.58823529,1.96159904 C4.88705882,2.57361434 2.88235294,4.88667217 2.88235294,7.64974124 L2.88235294,12.599865 L1,14.39991 L1,15.2999325 L17,15.2999325 L17,14.39991 L15.1176471,12.599865 L15.1176471,12.599865 Z" id="Fill-112" fill="#86939E"></path>
            </g>
        </g>
    </g>
</svg>