<?xml version="1.0" encoding="UTF-8"?>
<svg width="14px" height="14px" viewBox="0 0 14 14" version="1.1" xmlns="http://www.w3.org/2000/svg" xmlns:xlink="http://www.w3.org/1999/xlink">
    <!-- Generator: Sketch 42 (36781) - http://www.bohemiancoding.com/sketch -->
    <title>存储卷</title>
    <desc>Created with Sketch.</desc>
    <defs></defs>
    <g id="LIST汇总" stroke="none" stroke-width="1" fill="none" fill-rule="evenodd">
        <g id="Artboard" transform="translate(-240.000000, -413.000000)" fill="#FFFFFF">
            <g id="Group-14" transform="translate(240.000000, 413.000000)">
                <path d="M1.55555556,12.6 L12.4444444,12.6 L12.4444444,4.9 L1.55555556,4.9 L1.55555556,12.6 Z M12.4444444,1.4 L11.6666667,1.4 L11.6666667,0 L10.1111111,0 L10.1111111,1.4 L3.88888889,1.4 L3.88888889,0 L2.33333333,0 L2.33333333,1.4 L1.55555556,1.4 C0.692222222,1.4 0.00777777778,2.03 0.00777777778,2.8 L0,12.6 C0,13.37 0.692222222,14 1.55555556,14 L12.4444444,14 C13.3,14 14,13.37 14,12.6 L14,2.8 C14,2.03 13.3,1.4 12.4444444,1.4 L12.4444444,1.4 Z M9.33333333,7.7 L10.8888889,7.7 L10.8888889,6.3 L9.33333333,6.3 L9.33333333,7.7 Z M6.22222222,7.7 L7.77777778,7.7 L7.77777778,6.3 L6.22222222,6.3 L6.22222222,7.7 Z M3.11111111,7.7 L4.66666667,7.7 L4.66666667,6.3 L3.11111111,6.3 L3.11111111,7.7 Z" id="操作日志"></path>
            </g>
        </g>
    </g>
</svg>