<?xml version="1.0" standalone="no"?><!DOCTYPE svg PUBLIC "-//W3C//DTD SVG 1.1//EN" "http://www.w3.org/Graphics/SVG/1.1/DTD/svg11.dtd"><svg t="1514171904814" class="icon" style="" viewBox="0 0 1024 1024" version="1.1" xmlns="http://www.w3.org/2000/svg" p-id="24092" xmlns:xlink="http://www.w3.org/1999/xlink" width="200" height="200"><defs><style type="text/css"></style></defs><path d="M908.958025 733.144268c0-96.530511-78.289947-174.820459-174.820459-174.820459s-174.820459 78.289947-174.820459 174.820459c0 49.574603 20.67866 94.363316 53.818695 126.148854l-53.005996 91.834921 70.253263-5.05679 30.70194 63.390476 58.875485-102.038801c4.695591 0.361199 9.391182 0.541799 14.177072 0.541799s9.481481-0.1806 14.177072-0.541799l58.875485 102.038801 30.70194-63.390476 70.253263 5.05679L855.13933 859.293122C888.279365 827.417284 908.958025 782.718871 908.958025 733.144268zM824.52769 823.534392c-24.110053 24.110053-56.25679 37.474427-90.390123 37.474427s-66.280071-13.274074-90.390123-37.474427-37.474427-56.25679-37.474427-90.390123 13.274074-66.280071 37.474427-90.390123 56.25679-37.474427 90.390123-37.474427 66.280071 13.274074 90.390123 37.474427 37.474427 56.25679 37.474427 90.390123S848.728042 799.334039 824.52769 823.534392z" p-id="24093" fill="#FFFFFF"></path><path d="M303.317108 229.632451c14.086772 0 25.55485-11.468078 25.64515-25.64515L328.962257 66.64127 328.962257 15.35097 114.680776 229.632451l51.2 0L303.317108 229.632451z" p-id="24094" fill="#FFFFFF"></path><path d="M540.625044 817.213404c-11.558377-26.638448-17.427866-54.902293-17.427866-84.159436 0-56.34709 21.942857-109.353086 61.765079-149.175309s92.828219-61.765079 149.175309-61.765079c27.541446 0 54.179894 5.23739 79.012346 15.26067l0-80.005644L813.149912 45.87231c0-16.795767-13.725573-30.52134-30.52134-30.52134L369.687478 15.35097l0 61.042681 0 163.532981c-0.0903 16.795767-13.725573 30.52134-30.52134 30.52134L175.633157 270.447972 114.680776 270.447972l0 634.62716c0 16.795767 13.725573 30.52134 30.52134 30.52134l304.039506 0L527.35097 935.596473l41.267019-71.51746C557.330511 849.72134 547.93933 834.099471 540.625044 817.213404zM452.221517 195.499118l193.964021 0c16.795767 0 30.52134 13.725573 30.52134 30.52134 0 16.795767-13.635273 30.52134-30.431041 30.52134L452.221517 256.541799c-16.795767 0-30.52134-13.725573-30.52134-30.52134C421.700176 209.134392 435.42575 195.499118 452.221517 195.499118zM269.815873 426.847266l388.018342 0c16.795767 0 30.52134 13.725573 30.52134 30.52134s-13.635273 30.52134-30.431041 30.52134L269.815873 487.889947c-16.795767 0-30.52134-13.725573-30.52134-30.52134S253.020106 426.847266 269.815873 426.847266zM450.59612 719.238095 268.461376 719.238095c-16.073369 0-29.166843-13.725573-29.166843-30.52134 0-16.795767 13.093474-30.52134 29.166843-30.52134L450.59612 658.195414c16.073369 0 29.166843 13.725573 29.166843 30.52134C479.762963 705.512522 466.669489 719.238095 450.59612 719.238095z" p-id="24095" fill="#FFFFFF"></path></svg>