<?xml version="1.0" encoding="UTF-8" standalone="no"?>
<svg width="46px" height="53px" viewBox="0 0 46 53" version="1.1" xmlns="http://www.w3.org/2000/svg" xmlns:xlink="http://www.w3.org/1999/xlink">
    <!-- Generator: Sketch 41 (35326) - http://www.bohemiancoding.com/sketch -->
    <title>网卡</title>
    <desc>Created with Sketch.</desc>
    <defs></defs>
    <g id="Page-1" stroke="none" stroke-width="1" fill="none" fill-rule="evenodd">
        <g id="Group" transform="translate(-55.000000, 0.000000)" fill="#60A0EB">
            <g id="网卡" transform="translate(55.000000, 0.000000)">
                <path d="M23,53 L0,39.75 L1.48029737e-15,13.25 L23,0 L46,13.25 L46,39.75 L23,53 Z M43.3333333,38.09375 L43.3333333,14.90625 L23,3.3125 L2.66666667,14.90625 L2.66666667,38.09375 L23,49.6875 L43.3333333,38.09375 Z" id="Shape"></path>
                <path d="M23,41.3239741 C24.2343333,41.3239741 24.8839825,40.6763475 24.8839825,39.4458569 C24.8839825,38.2153664 24.2343333,37.5677398 23,37.5677398 C21.7656667,37.5677398 21.1160175,38.2153664 21.1160175,39.4458569 C21.1160175,40.6763475 21.7656667,41.3239741 23,41.3239741 Z M41.515,22.8666159 L38.8514386,25.521885 C34.4987895,21.1180241 29.1716667,18.9808563 23,18.9808563 C16.8283333,18.9808563 11.5012105,21.1827868 7.1485614,25.521885 L4.485,22.8666159 C6.88870175,20.4703975 9.68219298,18.5922804 12.8005088,17.2970272 C16.0487544,15.9370113 19.4269298,15.224622 23,15.224622 C26.5730702,15.224622 29.9512456,15.9370113 33.1994912,17.2970272 C36.317807,18.5922804 39.1112982,20.4703975 41.515,22.8666159 L41.515,22.8666159 Z M9.74715789,28.1771541 C13.385193,24.5504451 17.802807,22.7370906 23,22.7370906 C28.197193,22.7370906 32.5498421,24.5504451 36.1878772,28.1771541 L33.5243158,30.8324231 C30.6008947,27.9181034 27.0927895,26.4285622 22.9350351,26.4285622 C18.7772807,26.4285622 15.2691754,27.9181034 12.3457544,30.8324231 L9.74715789,28.1771541 Z M30.9257193,33.4229295 L28.2621579,36.0781986 C26.7679649,34.5886574 25.0139123,33.8762682 23,33.8762682 C20.9211228,33.8762682 19.1670702,34.5886574 17.7378421,36.0781986 L15.0742807,33.4229295 C17.2830877,31.2209991 19.9466491,30.1847965 23,30.1847965 C26.0533509,30.1847965 28.7169123,31.2209991 30.9257193,33.4229295 Z" id="Shape"></path>
            </g>
        </g>
    </g>
</svg>