<?xml version="1.0" encoding="UTF-8" standalone="no"?>
<svg width="50px" height="46px" viewBox="0 0 50 46" version="1.1" xmlns="http://www.w3.org/2000/svg" xmlns:xlink="http://www.w3.org/1999/xlink">
    <!-- Generator: Sketch 41 (35326) - http://www.bohemiancoding.com/sketch -->
    <title>显卡</title>
    <desc>Created with Sketch.</desc>
    <defs></defs>
    <g id="Page-1" stroke="none" stroke-width="1" fill="none" fill-rule="evenodd">
        <g id="Group" transform="translate(-177.000000, -5.000000)" fill="#60A0EB">
            <path d="M184.671274,23.5920609 C183.913365,23.5920609 183.534411,23.8576647 183.534411,24.3888722 L183.534411,25.7085828 C183.534411,26.2397904 183.913365,26.5053941 184.671274,26.5053941 L198.491056,26.5053941 C199.248965,26.5053941 199.627919,26.2397904 199.627919,25.7085828 L199.627919,24.3888722 C199.627919,23.8576647 199.248965,23.5920609 198.491056,23.5920609 L184.671274,23.5920609 Z M184.671274,17.822675 C183.913365,17.822675 183.534411,18.0860296 183.534411,18.6127388 L183.534411,19.9212738 C183.534411,20.4644301 183.913365,20.7360082 184.671274,20.7360082 L198.491056,20.7360082 C199.248965,20.7360082 199.627919,20.4644301 199.627919,19.9212738 L199.627919,18.6127388 C199.627919,18.0860296 199.248965,17.822675 198.491056,17.822675 L184.671274,17.822675 Z M184.671275,29.3252262 C183.913366,29.3252262 183.534411,29.59083 183.534411,30.1220376 L183.534411,31.4417481 C183.534411,31.9729557 183.913366,32.2385595 184.671275,32.2385595 L198.491079,32.2385595 C199.248988,32.2385595 199.627943,31.9729557 199.627943,31.4417481 L199.627943,30.1220376 C199.627943,29.59083 199.248988,29.3252262 198.491079,29.3252262 L184.671275,29.3252262 L184.671275,29.3252262 Z M180.942262,36.0570217 C180.199179,36.0570217 179.827637,35.6661073 179.827637,34.8842785 L179.827637,15.2673078 C179.827637,14.485479 180.199179,14.0945646 180.942262,14.0945646 L213.858005,14.0945646 C221.033272,14.0945646 224.620905,17.7549637 224.620905,25.0757621 C224.620905,32.3965604 221.033272,36.0569595 213.858005,36.0569595 L180.942262,36.0569595 L180.942262,36.0570217 Z M221.852525,7.56842514 L221.852525,11.1468376 L181.684772,11.1468376 C178.561591,11.1468376 177,12.7051744 177,15.821848 L177,35.3588577 C177,38.4755313 178.561591,40.0338681 181.684772,40.0338681 L181.655875,42.3713986 C181.655875,42.9870503 181.973976,43.2948761 182.610178,43.2948761 L189.810894,43.2948761 C190.447095,43.2948761 190.765196,42.9870503 190.765196,42.3713986 L190.765196,40.0338681 L194.090807,40.0338681 L194.090807,42.3713986 C194.090807,42.9870503 194.408908,43.2948761 195.045109,43.2948761 L212.743204,43.2948761 C213.360141,43.2948761 213.66861,42.9870503 213.66861,42.3713986 L213.66861,40.0338681 L221.852525,40.0338681 L221.852525,48.4316254 C221.852525,50.1438751 222.710438,51 224.426263,51 C226.142088,51 227,50.1438751 227,48.4316254 L227,7.56837463 C227,5.85612488 226.142088,5 224.426263,5 C222.710438,5 221.852525,5.85612488 221.852525,7.56837463 L221.852525,7.56842514 Z M208.605882,25.0288202 C208.605882,21.788287 210.210498,20.1680203 213.419729,20.1680203 C216.595843,20.1680203 218.1839,21.788287 218.1839,25.0288202 C218.1839,28.3031428 216.595843,29.9403041 213.419729,29.9403041 C210.210498,29.9403041 208.605882,28.3031428 208.605882,25.0288202 Z M205.792226,25.0541622 C205.792226,30.2254059 208.326448,32.8110278 213.394891,32.8110278 C218.463334,32.8110278 220.997556,30.2254059 220.997556,25.0541622 C220.997556,19.8829185 218.463334,17.2972967 213.394891,17.2972967 C208.326448,17.2972967 205.792226,19.8829185 205.792226,25.0541622 L205.792226,25.0541622 Z" id="显卡"></path>
        </g>
    </g>
</svg>