<?xml version="1.0" encoding="UTF-8" standalone="no"?>
<svg width="51px" height="51px" viewBox="0 0 51 51" version="1.1" xmlns="http://www.w3.org/2000/svg" xmlns:xlink="http://www.w3.org/1999/xlink">
    <!-- Generator: Sketch 41 (35326) - http://www.bohemiancoding.com/sketch -->
    <title>网络</title>
    <desc>Created with Sketch.</desc>
    <defs></defs>
    <g id="Page-1" stroke="none" stroke-width="1" fill="none" fill-rule="evenodd">
        <g id="Group" transform="translate(-111.000000, -2.000000)" fill="#60A0EB">
            <path d="M160.572759,40.055476 C159.696388,39.1800237 158.463854,38.6284989 157.101174,38.6284989 L152.526824,38.6284989 C151.164414,38.6284989 149.96362,39.1800237 149.055239,40.055476 C148.178868,40.9635965 147.628214,42.1642724 147.628214,43.5273712 L147.628214,48.1011818 C147.628214,49.4642265 148.178868,50.6968146 149.055239,51.5733469 C149.96362,52.4487453 151.164414,53 152.526824,53 L157.101174,53 C158.463854,53 159.696388,52.4487453 160.572759,51.5733469 C161.44913,50.6968146 162,49.4641725 162,48.1011818 L162,43.5273712 C162,42.1642724 161.449022,40.9635425 160.572759,40.055476 Z M159.080634,48.1011818 C159.080634,48.6527065 158.852729,49.1392189 158.496512,49.4962467 C158.139216,49.8534364 157.653231,50.0807635 157.101066,50.0807635 L152.526716,50.0807635 C151.974605,50.0807635 151.48862,49.8534904 151.13127,49.4962467 C150.774999,49.1392729 150.580184,48.6527065 150.580184,48.1011818 L150.580184,43.5273712 C150.580184,42.9761164 150.774999,42.489496 151.13127,42.1323063 C151.488566,41.7753865 151.974551,41.5800256 152.526716,41.5800256 L157.101066,41.5800256 C157.653177,41.5800256 158.139162,41.7754405 158.496512,42.1323063 C158.852729,42.489226 159.080634,42.9760624 159.080634,43.5273712 L159.080634,48.1011818 Z M138.803774,38.628445 L134.22829,38.628445 C132.866744,38.628445 131.633076,39.1799697 130.757839,40.055422 C129.849457,40.9635425 129.33049,42.1642185 129.33049,43.5273172 L129.33049,48.1011278 C129.33049,49.4641725 129.849565,50.6967606 130.757839,51.5732929 C131.633076,52.4486913 132.867014,52.999946 134.22829,52.999946 L138.803774,52.999946 C140.132986,52.999946 141.366978,52.4486913 142.275035,51.5732929 C143.150543,50.6967606 143.7026,49.4641185 143.7026,48.1011278 L143.7026,43.5273172 C143.7026,42.1642185 143.150489,40.9634885 142.275035,40.055422 C141.366978,39.1799697 140.132986,38.628445 138.803774,38.628445 Z M140.749874,48.1011818 C140.749874,48.6527065 140.555383,49.1392189 140.198033,49.4962467 C139.84187,49.8534364 139.322795,50.0807635 138.803828,50.0807635 L134.228344,50.0807635 C133.677367,50.0807635 133.190248,49.8534904 132.834032,49.4962467 C132.477815,49.1392729 132.24991,48.6527065 132.24991,48.1011818 L132.24991,43.5273712 C132.24991,42.9761164 132.477761,42.489496 132.834032,42.1323063 C133.190248,41.7753865 133.677367,41.5800256 134.228344,41.5800256 L138.803828,41.5800256 C139.322903,41.5800256 139.841924,41.7754405 140.198033,42.1323063 C140.555437,42.489226 140.749874,42.9760624 140.749874,43.5273712 L140.749874,48.1011818 Z M142.275035,3.42751705 C141.366978,2.55157872 140.132986,2 138.803774,2 L134.22829,2 C132.867014,2 131.633076,2.55152473 130.757839,3.42751705 C129.849457,4.33596154 129.33049,5.56881963 129.33049,6.8989262 L129.33049,11.4732768 C129.33049,12.8360515 129.849565,14.0689096 130.757839,14.9449019 C131.633076,15.8532924 132.867014,16.372419 134.22829,16.372419 L138.803774,16.372419 C140.132986,16.372419 141.366978,15.8533464 142.275035,14.9449019 C143.150543,14.0689636 143.7026,12.8360515 143.7026,11.4732768 L143.7026,6.8989262 C143.7026,5.56887362 143.150489,4.33569155 142.275035,3.42751705 Z M140.749874,11.4733308 C140.749874,12.0248015 140.555383,12.5113679 140.198033,12.8683417 C139.84187,13.2252615 139.322795,13.4525886 138.803828,13.4525886 L134.228344,13.4525886 C133.677367,13.4525886 133.190248,13.2253155 132.834032,12.8683417 C132.477815,12.5113679 132.24991,12.0248015 132.24991,11.4733308 L132.24991,6.8989262 C132.24991,6.37990763 132.477761,5.86083507 132.834032,5.50391531 C133.190248,5.1795017 133.677367,4.95266057 134.228344,4.95266057 L138.803828,4.95266057 C139.322903,4.95266057 139.841924,5.14699555 140.198033,5.50391531 C140.555437,5.86078107 140.749874,6.37990763 140.749874,6.8989262 L140.749874,11.4733308 L140.749874,11.4733308 Z M116.742215,35.5132536 C116.742215,35.9350777 116.90502,36.2920514 117.164504,36.5512907 C117.423771,36.811664 117.780204,36.9731688 118.20233,36.9731688 C118.591636,36.9731688 118.980889,36.811556 119.240426,36.5512907 C119.49991,36.2921054 119.661635,35.9351317 119.661635,35.5135236 L119.661635,27.8243596 L135.039615,27.8243596 L135.039615,35.5134696 C135.039615,35.9350237 135.20242,36.2919974 135.461904,36.5512367 C135.721441,36.81161 136.110802,37.0061069 136.5,37.0061069 C136.921263,37.0061069 137.278559,36.811556 137.538096,36.5512367 C137.79758,36.2920514 137.960223,35.9350777 137.960223,35.5134696 L137.960223,27.8243596 L153.338527,27.8243596 L153.338527,35.5131996 C153.338527,35.9350237 153.500198,36.2919974 153.792556,36.5512367 C154.052039,36.81161 154.408256,37.0061069 154.830598,37.0061069 C155.219904,37.0061069 155.576067,36.811556 155.868694,36.5512367 C156.128232,36.2920514 156.289957,35.9350777 156.289957,35.5131996 L156.289957,26.3647144 C156.289957,25.9752345 156.128286,25.5859165 155.868694,25.3266232 C155.576121,25.066898 155.219904,24.9047992 154.830598,24.9047992 L137.992233,24.9047992 L137.992233,19.4869084 C137.992233,19.0974285 137.797688,18.7405087 137.538258,18.4488713 C137.278775,18.188984 136.921425,18.0269392 136.500162,18.0269392 C136.11091,18.0269392 135.721603,18.189038 135.462066,18.4488713 C135.202582,18.7405087 135.039777,19.0974285 135.039777,19.4869084 L135.039777,24.9047992 L118.202762,24.9047992 C117.780366,24.9047992 117.424203,25.066898 117.164666,25.3266232 C116.905182,25.5858625 116.709233,25.9752885 116.709233,26.3647144 L116.742323,26.3647144 L116.742323,35.5131996 L116.742215,35.5132536 Z M120.473284,38.628445 L115.897746,38.628445 C114.536254,38.628445 113.335676,39.1799697 112.427295,40.055422 C111.550924,40.9635425 111,42.1642185 111,43.5273172 L111,48.1011278 C111,49.4641725 111.550978,50.6967606 112.427295,51.5732929 C113.335676,52.4486913 114.536254,52.999946 115.897746,52.999946 L120.473284,52.999946 C121.83564,52.999946 123.06812,52.4486913 123.944491,51.5732929 C124.852873,50.6967606 125.37184,49.4641185 125.37184,48.1011278 L125.37184,43.5273172 C125.37184,42.1642185 124.852765,40.9634885 123.944491,40.055422 C123.06812,39.1799697 121.835586,38.628445 120.473284,38.628445 L120.473284,38.628445 Z M122.45134,48.1011818 C122.45134,48.6527065 122.225001,49.1392189 121.86873,49.4962467 C121.511164,49.8534364 121.024046,50.0807635 120.473338,50.0807635 L115.8978,50.0807635 C115.378833,50.0807635 114.859758,49.8534904 114.503596,49.4962467 C114.147055,49.1392729 113.951484,48.6527065 113.951484,48.1011818 L113.951484,43.5273712 C113.951484,42.9761164 114.147055,42.489496 114.503596,42.1323063 C114.859812,41.7753865 115.346877,41.5800256 115.8978,41.5800256 L120.473338,41.5800256 C121.023992,41.5800256 121.511164,41.7754405 121.86873,42.1323063 C122.224947,42.489226 122.45134,42.9760624 122.45134,43.5273712 L122.45134,48.1011818 Z" id="网络"></path>
        </g>
    </g>
</svg>