<?xml version="1.0" encoding="UTF-8" standalone="no"?>
<svg width="44px" height="51px" viewBox="0 0 44 51" version="1.1" xmlns="http://www.w3.org/2000/svg" xmlns:xlink="http://www.w3.org/1999/xlink">
    <!-- Generator: Sketch 41 (35326) - http://www.bohemiancoding.com/sketch -->
    <title>磁盘</title>
    <desc>Created with Sketch.</desc>
    <defs></defs>
    <g id="Page-1" stroke="none" stroke-width="1" fill="none" fill-rule="evenodd">
        <g id="Group" transform="translate(0.000000, -2.000000)" fill="#60A0EB">
            <g id="磁盘" transform="translate(0.000000, 2.000000)">
                <path d="M43.9999505,5.95151563 L43.9999505,45.0852956 C43.9746139,45.1617956 43.9239406,45.2382955 43.9239406,45.3147457 C43.1640392,49.0624485 40.7828897,51 37.0085711,51 L6.81402288,51 C2.76105076,51 0,48.221098 0,44.1420447 L0,6.89481631 C0,6.33391598 0.0252871572,5.74756546 0.151920886,5.18666513 C0.785287472,2.07636273 3.34374406,0.0368609986 6.61142871,0.0113111967 C11.753629,-0.0141389959 16.921166,0.0113111967 22.0633169,0.0113111967 C27.2561905,0.0113111967 32.4490641,-0.0141389959 37.6166011,0.0368111939 C40.6816421,0.0623111912 43.1640887,2.15286272 43.822693,5.16121493 C43.8986534,5.4161153 43.9493762,5.69661527 44,5.95151563 L43.9999505,5.95151563 Z M41.0362561,25.5056805 L41.0362561,6.81826651 C41.0362561,4.42181462 39.5923644,2.96861361 37.1859276,2.96861361 L6.76334959,2.96861361 C4.3316257,2.96861361 2.91302113,4.42181462 2.91302113,6.86926651 L2.91302113,44.1164949 C2.91302113,46.5894468 4.35691286,48.042598 6.81397339,48.042598 L37.1099177,48.042598 C39.5923644,48.042598 41.0362066,46.5894468 41.0362066,44.0654949 L41.0362066,25.5056805 L41.0362561,25.5056805 Z" id="Shape"></path>
                <path d="M37.7647059,19.5704423 C37.6637021,24.2193768 36.1987285,27.8209986 33.218304,30.7584442 C32.43534,31.5247669 31.778643,31.5758152 30.9451524,30.8861896 C29.8338152,29.9921714 28.722478,29.0726041 27.6616674,28.1274878 C26.1966937,26.8247841 24.2266027,26.5948923 22.635362,27.616606 C21.069434,28.6383696 20.412737,30.5541015 21.069434,32.4443342 C21.2967541,33.0829115 21.2967541,33.6448914 20.8168013,34.1557233 C20.3622104,34.6666051 19.7812539,34.7177033 19.1498202,34.5389096 C12.3050034,32.7253241 7.75865088,26.6715395 7.88491789,19.5448932 C8.01123424,12.5970904 13.2900736,6.39006126 20.1096271,5.2150531 C28.2173113,3.81015311 35.7188744,8.86777309 37.436382,16.965035 C37.6384389,17.9611996 37.6889654,19.0084623 37.7647059,19.5704423 L37.7647059,19.5704423 Z M31.778643,27.8976459 C34.7590675,24.7813568 35.9966717,19.1362576 33.3446204,14.2319321 C30.6673058,9.30205755 24.9590895,6.87544388 19.6044603,8.38249028 C14.2498312,9.8640375 10.6379729,14.8194113 10.7895526,20.362364 C10.9410828,25.8286195 14.7802612,29.8134277 17.7858996,30.8606904 C17.8616894,30.4009068 17.9122159,29.9666722 18.0132197,29.5324377 C18.1142728,29.072654 18.2658524,28.6128704 18.4425966,28.1786359 C20.3369472,23.8873386 25.8683699,22.6612322 29.379175,25.7775713 C30.1874023,26.4927459 30.9956296,27.2079704 31.7786923,27.8976459 L31.778643,27.8976459 Z" id="Shape"></path>
                <path d="M34.4060559,46.0186047 C33.1387068,45.9930702 31.7699994,45.2782538 30.7308178,43.8996902 C29.0832887,41.7042221 27.4357596,39.4832195 25.813632,37.2622169 C24.7490488,35.8070497 23.6845152,34.3263979 22.6199816,32.8712308 C21.7582139,31.6968932 21.8595721,30.0630843 22.8734514,29.0163694 C23.8619292,27.9952388 25.5094583,27.8165472 26.6500477,28.6589862 C30.24923,31.3139755 33.8484124,33.9689648 37.4728971,36.6239541 C38.7655981,37.5685311 39.6527177,38.7428686 39.8554837,40.4022619 C40.1596079,43.4146344 37.8530771,46.0186047 34.4060063,46.0186047 L34.4060559,46.0186047 Z M24.8250551,30.9821268 C24.875759,31.135234 24.875759,31.2118874 24.9264629,31.2629065 L32.7584773,41.9084482 C32.9612432,42.1637433 33.1893611,42.4190384 33.4427814,42.648799 C34.3299505,43.4146344 35.6732564,43.338031 36.4590178,42.4700575 C37.2447297,41.6020841 37.2194273,40.2745894 36.3576101,39.4321505 C36.0788378,39.1513707 35.7746642,38.9215602 35.445188,38.6917996 C32.0234198,36.1644828 28.6016515,33.6371161 25.1545807,31.1352839 C25.0785249,31.0842149 25.0024691,31.0586804 24.8250551,30.9821268 Z M9.89613334,44.588972 C8.50207408,44.588972 7.38683659,43.4657034 7.41218852,42.0871398 C7.41218852,40.6830416 8.55277795,39.6108421 9.9468372,39.6108421 C11.3155445,39.6363766 12.4054301,40.7341106 12.4054301,42.0871398 C12.3800782,43.4657034 11.2648407,44.588972 9.89613334,44.588972 Z M22.9241553,22.5575877 C21.555448,22.5575877 20.4148585,21.4343191 20.3895066,20.0557555 C20.3895066,18.7027263 21.4793922,17.5794578 22.8480995,17.5539233 C24.2421587,17.5284386 25.3827481,18.6261727 25.4080506,20.0047364 C25.4334025,21.3832501 24.2928626,22.5575877 22.9241553,22.5575877 L22.9241553,22.5575877 Z" id="Shape"></path>
            </g>
        </g>
    </g>
</svg>