<?xml version="1.0" standalone="no"?><!DOCTYPE svg PUBLIC "-//W3C//DTD SVG 1.1//EN" "http://www.w3.org/Graphics/SVG/1.1/DTD/svg11.dtd"><svg t="1514185816264" class="icon" style="" viewBox="0 0 1099 1024" version="1.1" xmlns="http://www.w3.org/2000/svg" p-id="1877" xmlns:xlink="http://www.w3.org/1999/xlink" width="214.6484375" height="200"><defs><style type="text/css"></style></defs><path d="M1036.338 133.996c0-13.356-10.211-22.937-26.707-22.937-30.795 0-659.859 0-927.571 0-17.597 0-19.167 6.128-19.167 21.839 0 213.041 0 700.706 0 747.681 0 33.935 8.955 42.733 33.149 42.733 63.472 0 868.498-0.158 916.102 0 19.483 0 24.037-14.141 24.037-32.365 0.158-211.785 0.158-710.918 0.158-756.951zM425.97 174.059c21.839-0.158 40.22 18.225 40.062 40.22-0.158 21.681-18.067 39.121-39.905 38.963-21.996-0.158-39.435-17.597-39.435-39.435 0-21.522 17.597-39.591 39.278-39.748zM303.895 174.217c21.839-0.158 39.591 17.439 39.748 39.435s-17.281 39.591-39.278 39.748c-22.154 0.158-39.435-16.967-39.748-39.121 0-22.154 17.597-40.062 39.278-40.062zM179.151 174.217c21.839-0.471 40.22 17.91 40.22 39.905-0.158 21.681-17.597 38.963-39.435 39.121-21.839 0.158-39.435-17.281-39.591-38.963-0.313-21.522 17.281-39.591 38.806-40.062zM985.593 843.186c0 21.522-8.326 29.694-30.006 29.694-270.384 0-550.039 0-820.422 0-22.781 0-21.367-7.856-21.367-30.163 0-170.464 0-348.626 0-518.931 0-13.982 2.513-15.553 15.396-15.553 139.984-0.158 280.596 0 420.423 0 141.242 0 283.425 0.158 424.667 0 8.797 0 11.782 1.727 11.782 11.47-0.627 172.192-0.471 351.139-0.471 523.487z" p-id="1878" fill="#FFFFFF"></path><path d="M785.435 713.413c9.586 0 11.626 1.414 11.626 5.813 0 7.698-0.158 33.308-0.158 38.177 0 5.185-1.885 6.442-6.601 6.442-13.827 0-225.924 0-240.534 0-6.756 0-7.54-2.829-7.54-7.856 0-4.714-0.158-28.909 0-35.664 0-5.498 1.1-6.913 10.054-6.913 30.323-0.158 203.771-0.158 233.149 0z" p-id="1879" fill="#FFFFFF"></path><path d="M449.377 559.763c-38.335-29.536-132.128-98.351-153.339-114.689-5.185-3.929-5.969-7.227-4.556-10.839 6.128-9.741 14.927-22.466 19.325-27.809 5.342-6.756 8.797-5.655 16.655 0.471 9.741 7.227 157.738 117.361 174.706 131.187 16.339 13.827 13.827 30.637-5.028 47.446-23.41 18.695-152.71 117.831-169.835 131.187-7.383 5.185-10.211 8.171-18.067-0.158-3.771-5.028-14.768-17.91-18.225-22.466-5.969-7.856-1.885-11.626 5.655-18.539 21.367-17.439 112.176-83.425 152.71-115.788z" p-id="1880" fill="#FFFFFF"></path></svg>