<?xml version="1.0" standalone="no"?><!DOCTYPE svg PUBLIC "-//W3C//DTD SVG 1.1//EN" "http://www.w3.org/Graphics/SVG/1.1/DTD/svg11.dtd"><svg t="1514171655510" class="icon" style="" viewBox="0 0 1024 1024" version="1.1" xmlns="http://www.w3.org/2000/svg" p-id="20676" xmlns:xlink="http://www.w3.org/1999/xlink" width="200" height="200"><defs><style type="text/css"></style></defs><path d="M512 270.888h0.745c114.653 0.185 207.371 97.086 207.58 216.907-0.124 65.537-24.951 124.043-57.966 173.485 49.733-27.349 112.456-84.714 112.5-173.485-0.044-151.267-117.384-273.778-262.112-273.82H512c-144.729 0.041-262.07 122.552-262.11 273.82 0.04 88.77 62.764 146.136 112.5 173.485-33.019-49.441-57.843-107.947-57.967-173.485 0.206-119.821 92.925-216.722 207.575-216.907z m0-203.503c-222.266 0-402.33 188.193-402.414 420.305 0 62.293 12.991 121.457 36.246 174.624 46.672 106.541 134.716 171.294 242.706 200.71l-7.365-15.825c-82.418-42.223-149.115-124.89-185.856-209.235-19.984-45.78-31.113-96.651-31.197-150.274 0.33-200.709 155.777-363.003 347.88-363.417 192.106 0.414 347.551 162.707 347.883 363.417-0.25 149.634-86.721 296.142-210.268 358.743l-6.29 17.233c157.722-50.624 271.049-191.876 271.09-375.976C914.332 255.578 734.266 67.385 512 67.385z m0.91 485.659c-99.053 0-117.546 62.478-117.546 62.478-11.544 148.534 66.985 331.145 66.985 331.145s20.442 9.95 49.9 9.95c29.54 0 49.442-9.95 49.442-9.95s78.489-182.61 66.903-331.145c0-0.001-16.633-62.478-115.684-62.478z m-89.495-123.381c0 51.119 39.679 92.557 88.583 92.557 48.907 0 88.584-41.438 88.584-92.557 0-51.098-39.677-92.555-88.584-92.555-48.903 0-88.583 41.458-88.583 92.555z" p-id="20677" fill="#ADB5C2"></path></svg>