<?xml version="1.0" encoding="UTF-8"?>
<svg width="14px" height="14px" viewBox="0 0 14 14" version="1.1" xmlns="http://www.w3.org/2000/svg" xmlns:xlink="http://www.w3.org/1999/xlink">
    <!-- Generator: Sketch 42 (36781) - http://www.bohemiancoding.com/sketch -->
    <title>存储卷</title>
    <desc>Created with Sketch.</desc>
    <defs></defs>
    <g id="LIST汇总" stroke="none" stroke-width="1" fill="none" fill-rule="evenodd">
        <g id="sidebar-design" transform="translate(-64.000000, -450.000000)" fill="#ACB5C3">
            <g id="Group-17" transform="translate(64.000000, 450.000000)">
                <path d="M13.2222222,7.77777778 L0.777777778,7.77777778 C0.35,7.77777778 0,8.12777778 0,8.55555556 L0,13.2222222 C0,13.65 0.35,14 0.777777778,14 L13.2222222,14 C13.65,14 14,13.65 14,13.2222222 L14,8.55555556 C14,8.12777778 13.65,7.77777778 13.2222222,7.77777778 L13.2222222,7.77777778 Z M3.11111111,12.4444444 C2.25555556,12.4444444 1.55555556,11.7444444 1.55555556,10.8888889 C1.55555556,10.0333333 2.25555556,9.33333333 3.11111111,9.33333333 C3.96666667,9.33333333 4.66666667,10.0333333 4.66666667,10.8888889 C4.66666667,11.7444444 3.96666667,12.4444444 3.11111111,12.4444444 L3.11111111,12.4444444 Z M13.2222222,0 L0.777777778,0 C0.35,0 0,0.35 0,0.777777778 L0,5.44444444 C0,5.87222222 0.35,6.22222222 0.777777778,6.22222222 L13.2222222,6.22222222 C13.65,6.22222222 14,5.87222222 14,5.44444444 L14,0.777777778 C14,0.35 13.65,0 13.2222222,0 L13.2222222,0 Z M3.11111111,4.66666667 C2.25555556,4.66666667 1.55555556,3.96666667 1.55555556,3.11111111 C1.55555556,2.25555556 2.25555556,1.55555556 3.11111111,1.55555556 C3.96666667,1.55555556 4.66666667,2.25555556 4.66666667,3.11111111 C4.66666667,3.96666667 3.96666667,4.66666667 3.11111111,4.66666667 L3.11111111,4.66666667 Z" id="主机集群"></path>
            </g>
        </g>
    </g>
</svg>