<?xml version="1.0" encoding="UTF-8"?>
<svg width="14px" height="14px" viewBox="0 0 14 14" version="1.1" xmlns="http://www.w3.org/2000/svg" xmlns:xlink="http://www.w3.org/1999/xlink">
    <!-- Generator: Sketch 42 (36781) - http://www.bohemiancoding.com/sketch -->
    <title>存储卷</title>
    <desc>Created with Sketch.</desc>
    <defs></defs>
    <g id="LIST汇总" stroke="none" stroke-width="1" fill="none" fill-rule="evenodd">
        <g id="Artboard" transform="translate(-272.000000, -432.000000)" fill="#FFFFFF">
            <g id="Group-9" transform="translate(272.000000, 432.000000)">
                <path d="M9.33333333,12.7272727 L10.8888889,12.7272727 L10.8888889,11.4545455 L9.33333333,11.4545455 L9.33333333,12.7272727 Z M12.4444444,5.09090909 L14,5.09090909 L14,3.81818182 L12.4444444,3.81818182 L12.4444444,5.09090909 Z M0,11.4545455 C0,12.1545455 0.7,12.7272727 1.55555556,12.7272727 L5.66666667,12.7272727 L5.66666667,11.4545455 L5.66666667,2.54545455 L5.66666667,1.27272727 L1.55555556,1.27272727 C0.7,1.27272727 0,1.84545455 0,2.54545455 L0,11.4545455 Z M12.4444444,1.27272727 L12.4444444,2.54545455 L14,2.54545455 C14,1.84545455 13.3,1.27272727 12.4444444,1.27272727 L12.4444444,1.27272727 Z M6.22222222,14 L7.77777778,14 L7.77777778,0 L6.22222222,0 L6.22222222,14 Z M12.4444444,10.1818182 L14,10.1818182 L14,8.90909091 L12.4444444,8.90909091 L12.4444444,10.1818182 Z M9.33333333,2.54545455 L10.8888889,2.54545455 L10.8888889,1.27272727 L9.33333333,1.27272727 L9.33333333,2.54545455 Z M12.4444444,7.63636364 L14,7.63636364 L14,6.36363636 L12.4444444,6.36363636 L12.4444444,7.63636364 Z M12.4444444,12.7272727 C13.3,12.7272727 14,12.1545455 14,11.4545455 L12.4444444,11.4545455 L12.4444444,12.7272727 L12.4444444,12.7272727 Z" id="Fill-384"></path>
            </g>
        </g>
    </g>
</svg>