<?xml version="1.0" standalone="no"?><!DOCTYPE svg PUBLIC "-//W3C//DTD SVG 1.1//EN" "http://www.w3.org/Graphics/SVG/1.1/DTD/svg11.dtd"><svg t="1514181509784" class="icon" style="" viewBox="0 0 1024 1024" version="1.1" xmlns="http://www.w3.org/2000/svg" p-id="27554" xmlns:xlink="http://www.w3.org/1999/xlink" width="200" height="200"><defs><style type="text/css"></style></defs><path d="M848.736 117.392L175.296 112a80.16 80.16 0 0 0-80.176 80.192v477.632a80.176 80.176 0 0 0 80.176 80.192l240.864 1.952v43.52c0 11.12 8.992 20.064 20.032 20.064h151.584a20 20 0 0 0 20.032-20.064v-42l240.928 1.904c44.32 0 80.16-35.824 80.16-80.16V197.584a80.192 80.192 0 0 0-80.16-80.192z m-17.008 606.688a33.824 33.824 0 1 1 0.032-67.616 33.824 33.824 0 0 1-0.032 67.616z m33.824-134.032c0 22.16-20.08 40.08-44.784 40.08H202.576c-24.752 0-44.784-17.936-44.784-40.08V210.48c0-22.128 20.032-40.08 44.784-40.08h618.192c24.704 0 44.784 17.968 44.784 40.08v379.568zM771.6 912v-22.576a40.08 40.08 0 0 0-40.08-40.048H295.776a40.096 40.096 0 0 0-40.08 40.048V912h515.904z" fill="#FFFFFF" p-id="27555"></path><path d="M470.976 344.144c0 11.056-9.024 20.032-20.064 20.032h-100.208a20 20 0 0 1-20.032-20.032v-98.576a20 20 0 0 1 20.032-20.016h100.208c11.04 0 20.064 8.992 20.064 20.016v98.576zM684.752 344.144c0 11.056-8.96 20.032-20.064 20.032H564.48a20.048 20.048 0 0 1-20.032-20.032v-98.576c0-11.024 8.96-20.016 20.032-20.016h100.208c11.088 0 20.064 8.992 20.064 20.016v98.576zM470.976 549.584c0 11.056-9.024 20.032-20.064 20.032h-100.208a20 20 0 0 1-20.032-20.032v-98.56c0-11.04 8.912-20.032 20.032-20.032h100.208c11.04 0 20.064 8.992 20.064 20.032v98.56zM684.752 549.584c0 11.056-8.96 20.032-20.064 20.032H564.48a20.048 20.048 0 0 1-20.032-20.032v-98.56c0-11.04 8.96-20.032 20.032-20.032h100.208c11.088 0 20.064 8.992 20.064 20.032v98.56z" fill="#FFFFFF" p-id="27556"></path></svg>