<?xml version="1.0" standalone="no"?><!DOCTYPE svg PUBLIC "-//W3C//DTD SVG 1.1//EN" "http://www.w3.org/Graphics/SVG/1.1/DTD/svg11.dtd"><svg t="1514181861581" class="icon" style="" viewBox="0 0 1024 1024" version="1.1" xmlns="http://www.w3.org/2000/svg" p-id="36497" xmlns:xlink="http://www.w3.org/1999/xlink" width="200" height="200"><defs><style type="text/css"></style></defs><path d="M904.275939 0.693797 119.723037 0.693797c-34.279529 0-62.068265 27.817389-62.068265 62.130687l0 899.03869c0 34.314321 27.788737 62.130687 62.068265 62.130687l565.342586 0c16.461828 0 32.249301-6.546051 43.88934-18.197345L948.165279 786.368236c11.640038-11.651295 18.179949-27.455141 18.179949-43.933342L966.345228 62.824484C966.345228 28.510163 938.555468 0.693797 904.275939 0.693797zM739.172614 597.618493l-449.978806 0c-29.067862 0-56.525049-19.778344-60.577317-48.591403-4.931283-35.069516 22.136027-65.10849 56.210896-65.10849l449.97983 0c29.065815 0 56.520956 19.775274 60.575271 48.585264C800.318886 567.57338 773.249529 597.618493 739.172614 597.618493zM739.172614 341.793477l-449.978806 0c-29.067862 0-56.525049-19.778344-60.577317-48.591403-4.931283-35.069516 22.136027-65.10849 56.210896-65.10849l449.97983 0c29.065815 0 56.520956 19.775274 60.575271 48.585264C800.318886 311.748364 773.249529 341.793477 739.172614 341.793477z" p-id="36498" fill="#FFFFFF"></path></svg>