<?xml version="1.0" standalone="no"?><!DOCTYPE svg PUBLIC "-//W3C//DTD SVG 1.1//EN" "http://www.w3.org/Graphics/SVG/1.1/DTD/svg11.dtd"><svg t="1521186492249" class="icon" style="" viewBox="0 0 1024 1024" version="1.1" xmlns="http://www.w3.org/2000/svg" p-id="3734" xmlns:xlink="http://www.w3.org/1999/xlink" width="32" height="32"><defs><style type="text/css"></style></defs><path d="M955.636 251.215c-7.544-55.599-91.941-90.231-102.645-94.355l-160.020-64.986c-7.414-2.369-15.792 0.591-19.826 7.281-4.080 6.624-2.807 15.155 2.895 20.464 27.371 25.179 36.759 75.185 37.022 75.185 0 7.325-1.667 619.64-1.667 635.476 0 44.699-32.723 71.369-34.302 72.598-6.315 4.912-8.159 13.511-4.429 20.441 2.939 5.615 8.817 8.992 15.044 8.992 1.58 0 3.159-0.22 4.694-0.659 7.501-2.104 138.087-51.366 151.071-55.621 112.69-36.67 113.918-101.658 113.918-104.377 0.351-210.86 1.625-325.37 2.369-391.695 0.965-90.712 1.007-92.467-4.124-128.745zM529.004 84.11h-351.273c-63.253 0-114.62 50.095-114.62 111.682v631.769c0 61.543 51.366 111.638 114.62 111.638h351.273c63.166 0 114.576-50.095 114.576-111.638v-631.769c-0.001-61.586-51.411-111.682-114.576-111.682zM334.681 800.934c-38.074 0-69.043-30.136-69.043-67.18 0-37.087 30.969-67.268 69.043-67.268 38.075 0 69.131 30.18 69.131 67.268 0 37.045-31.056 67.18-69.131 67.18zM552.428 509.407c0 28.335-21.495 51.387-47.988 51.387h-302.232c-26.495 0-48.077-23.051-48.077-51.387v-122.121h398.297v122.121zM552.428 354.212h-398.297v-122.209c0-28.336 21.581-51.41 48.077-51.41h302.232c26.493 0 47.988 23.073 47.988 51.41v122.209z" p-id="3735"></path></svg>