<?xml version="1.0" standalone="no"?><!DOCTYPE svg PUBLIC "-//W3C//DTD SVG 1.1//EN" "http://www.w3.org/Graphics/SVG/1.1/DTD/svg11.dtd"><svg t="1514180969756" class="icon" style="" viewBox="0 0 1129 1024" version="1.1" xmlns="http://www.w3.org/2000/svg" p-id="25107" xmlns:xlink="http://www.w3.org/1999/xlink" width="220.5078125" height="200"><defs><style type="text/css"></style></defs><path d="M56.389678 221.608859a56.809575 56.809575 0 0 1-39.801988-15.243314A47.635358 47.635358 0 0 1 0.003529 170.303815V52.450411C0.003529 37.912805 5.508059 25.421756 16.58769 15.330117A56.597862 56.597862 0 0 1 56.389678 0.016231h1016.573824c15.455027 0 28.651786 5.081105 39.660847 15.313886S1129.137939 38.053947 1129.137939 52.662123v118.417972a47.988212 47.988212 0 0 1-16.51359 36.132301 55.751012 55.751012 0 0 1-39.660847 15.313885L56.389678 221.608859z m0 288.28213a56.315579 56.315579 0 0 1-39.801988-15.384457A48.411638 48.411638 0 0 1 0.003529 457.456809V339.532834c0-13.761326 5.50453-25.82895 16.584161-35.991159a56.668433 56.668433 0 0 1 39.801988-15.384456l1016.573824 1.199705c15.455027 0 28.651786 5.081105 39.660847 15.313885A48.199925 48.199925 0 0 1 1129.137939 340.873682v118.417971c0 14.608176-5.575101 27.028655-16.51359 37.190865s-24.205819 15.313885-39.660847 15.313885L56.389678 509.890989zM439.871952 652.797062a293.716089 293.716089 0 0 0-127.945042 69.300625c-36.696868 33.803461-55.751012 76.639998-57.303572 128.368468-2.187698 52.363608 15.455027 110.302318 52.928176 173.533845H49.544301c-24.911528 0-41.354548-16.019594-49.399631-47.988212v-155.608836-117.571121-76.216573c0-26.040662 16.44302-42.483682 49.399631-49.046776l439.938995-0.141141c-19.830423 12.349908-36.344014 37.61429-49.611344 75.369721zM120.609198 52.37984a53.633885 53.633885 0 0 0-39.307992 15.878452 52.081325 52.081325 0 0 0-16.019594 38.743425c0 14.537606 5.292818 27.099226 16.019594 37.684861a53.775026 53.775026 0 0 0 39.307992 15.737311 52.716463 52.716463 0 0 0 38.178857-15.737311 51.657899 51.657899 0 0 0 16.019595-37.684861 52.434179 52.434179 0 0 0-16.019595-38.743425 52.50475 52.50475 0 0 0-38.178857-15.878452z m0 291.52839a53.845597 53.845597 0 0 0-39.307992 15.807882 52.081325 52.081325 0 0 0-16.019594 38.743424c0 14.608176 5.292818 27.099226 16.019594 37.684861a53.633885 53.633885 0 0 0 39.307992 15.878453 52.293037 52.293037 0 0 0 38.178857-15.878453 52.928176 52.928176 0 0 0 16.019595-38.813995 51.234474 51.234474 0 0 0-16.019595-37.61429 52.716463 52.716463 0 0 0-38.178857-15.807882z m901.402114 399.57244c71.206039 35.567734 106.914915 83.555946 106.914915 144.035208 0 61.043829-35.991159 105.856351-107.973478 134.225853H431.121161c-75.016867-38.602283-112.560587-92.377309-112.560587-161.536791s24.064677-111.784307 72.194032-127.66276c48.199925-16.160736 83.555946-20.959557 106.420918-14.325893 3.740258-62.525818 28.369502-99.575541 73.887733-111.29031 55.115873-4.939963 95.62357 4.445967 121.311378 28.369502 75.652006-67.677494 149.963164-87.649059 222.792333-59.985265 73.464308 27.028655 109.173183 82.991379 106.844344 168.170456z" p-id="25108" fill="#FFFFFF"></path></svg>