<?xml version="1.0" standalone="no"?><!DOCTYPE svg PUBLIC "-//W3C//DTD SVG 1.1//EN" "http://www.w3.org/Graphics/SVG/1.1/DTD/svg11.dtd"><svg t="1514181998880" class="icon" style="" viewBox="0 0 1117 1024" version="1.1" xmlns="http://www.w3.org/2000/svg" p-id="39133" xmlns:xlink="http://www.w3.org/1999/xlink" width="218.1640625" height="200"><defs><style type="text/css"></style></defs><path d="M1111.505455 698.088727c-3.630545-19.456-16.104727-32.023273-32.116364-32.023272h-2.234182a55.575273 55.575273 0 0 1-55.482182-55.482182c0-8.098909 3.444364-17.966545 4.840728-21.038546a40.680727 40.680727 0 0 0-15.173819-49.710545l-64.884363-35.933091a43.845818 43.845818 0 0 0-47.476364 9.495273c-8.098909 8.285091-29.602909 25.506909-44.404364 25.506909-14.894545 0-36.584727-17.594182-44.683636-26.065455a43.752727 43.752727 0 0 0-47.290182-9.867636l-1.210182 0.558545-66.094545 36.305455-1.582545 0.930909a40.215273 40.215273 0 0 0-13.684364 48.593454 64.046545 64.046545 0 0 1 4.840727 21.224728 55.575273 55.575273 0 0 1-55.482182 55.482182h-2.606545c-15.639273 0-28.113455 12.567273-31.837091 32.023272-0.558545 2.978909-5.399273 29.789091-5.399273 51.572364 0 21.783273 4.840727 48.593455 5.399273 51.572364 3.723636 19.549091 16.197818 32.023273 32.209455 32.023272h2.234181c30.626909 0 55.482182 24.948364 55.482182 55.575273a63.115636 63.115636 0 0 1-4.840727 20.945455 40.773818 40.773818 0 0 0 15.080727 49.710545l63.674182 35.560727a43.101091 43.101091 0 0 0 47.755636-10.053818c7.912727-8.564364 30.161455-27.182545 45.428364-27.182545 15.36 0 37.422545 18.618182 45.614545 27.741091a43.194182 43.194182 0 0 0 49.338182 9.588363l64.418909-35.653818 1.582546-0.930909a40.215273 40.215273 0 0 0 13.684363-48.593455 64.046545 64.046545 0 0 1-4.933818-21.131636c0-30.72 24.855273-55.575273 55.482182-55.575273h2.606546c15.639273 0 28.113455-12.567273 31.744-31.930182 0.093091-0.279273 5.585455-28.858182 5.585454-51.665454 0-21.690182-4.933818-48.593455-5.585454-51.572364zM852.247273 847.499636a98.210909 98.210909 0 0 1 0-196.235636 98.210909 98.210909 0 0 1 0 196.235636z m-164.398546-385.396363a335.778909 335.778909 0 0 0-98.862545 508.555636H94.766545C42.728727 970.658909 0 938.542545 0 886.225455v-22.807273c0-48.034909 35.374545-90.577455 80.430545-106.775273l193.163637-86.109091s52.317091-16.011636 66.653091-32.116363c9.588364-10.705455 12.474182-45.986909 0.372363-69.073455-12.101818-23.272727-109.847273-150.528-109.847272-257.396364C230.679273 139.729455 343.877818 0 483.607273 0c139.636364 0 252.928 139.636364 252.928 311.947636 0 51.013818-22.993455 104.261818-48.872728 150.062546z" p-id="39134" fill="#FFFFFF"></path></svg>