<?xml version="1.0" standalone="no"?><!DOCTYPE svg PUBLIC "-//W3C//DTD SVG 1.1//EN" "http://www.w3.org/Graphics/SVG/1.1/DTD/svg11.dtd"><svg t="1514960516665" class="icon" style="" viewBox="0 0 1024 1024" version="1.1" xmlns="http://www.w3.org/2000/svg" p-id="1016" xmlns:xlink="http://www.w3.org/1999/xlink" width="48" height="48"><defs><style type="text/css"></style></defs><path d="M441.250909 729.832727l-147.083636-147.083636 52.130909-52.130909 89.367273 89.367273c3.723636 1.861818 9.309091 1.861818 14.894545-1.861819l223.418182-212.247272 52.130909 52.130909-284.858182 271.825454z" p-id="1017" fill="#ffffff"></path><path d="M863.883636 83.781818H856.436364v55.854546h7.447272c31.650909 0 55.854545 24.203636 55.854546 55.854545v688.872727c0 31.650909-24.203636 55.854545-55.854546 55.854546H160.116364c-31.650909 0-55.854545-24.203636-55.854546-55.854546v-688.872727c0-31.650909 24.203636-55.854545 55.854546-55.854545H167.563636v-55.854546h-7.447272c-61.44 0-111.709091 50.269091-111.709091 111.709091v688.872727c0 61.44 50.269091 111.709091 111.709091 111.709091h703.767272c61.44 0 111.709091-50.269091 111.709091-111.709091v-688.872727c0-61.44-50.269091-111.709091-111.709091-111.709091z" p-id="1018" fill="#ffffff"></path><path d="M297.890909 74.472727c-11.170909 0-18.618182 7.447273-18.618182 18.618182v111.709091c0 11.170909 7.447273 18.618182 18.618182 18.618182h428.218182c11.170909 0 18.618182-7.447273 18.618182-18.618182V93.090909c0-11.170909-7.447273-18.618182-18.618182-18.618182H297.890909z m0-55.854545h428.218182c40.96 0 74.472727 33.512727 74.472727 74.472727v111.709091c0 40.96-33.512727 74.472727-74.472727 74.472727H297.890909c-40.96 0-74.472727-33.512727-74.472727-74.472727V93.090909c0-40.96 33.512727-74.472727 74.472727-74.472727z" p-id="1019" fill="#ffffff"></path></svg>