<?xml version="1.0" standalone="no"?><!DOCTYPE svg PUBLIC "-//W3C//DTD SVG 1.1//EN" "http://www.w3.org/Graphics/SVG/1.1/DTD/svg11.dtd"><svg t="1514181476544" class="icon" style="" viewBox="0 0 1024 1024" version="1.1" xmlns="http://www.w3.org/2000/svg" p-id="27272" xmlns:xlink="http://www.w3.org/1999/xlink" width="200" height="200"><defs><style type="text/css"></style></defs><path d="M704 896v64H320v-64h384zM1024 768H0V128h1024v640zM64 704h896V192H64v512z" fill="#FFFFFF" p-id="27273"></path><path d="M678.4 428.8c-6.4-6.4-6.4-6.4-6.4-12.8 6.4-89.6-57.6-160-153.6-160-102.4 0-147.2 64-160 140.8-64 0-115.2 51.2-115.2 121.6 0 64 51.2 121.6 115.2 121.6h320c57.6 0 102.4-44.8 102.4-102.4s-44.8-108.8-102.4-108.8z m-19.2 166.4H377.6c-51.2 0-89.6-19.2-89.6-76.8 0-57.6 44.8-76.8 96-76.8h12.8v-12.8c6.4-57.6 32-121.6 115.2-121.6s121.6 64 121.6 134.4v25.6H652.8c44.8 0 83.2 25.6 83.2 64s-32 64-76.8 64z" fill="#FFFFFF" p-id="27274"></path></svg>