<?xml version="1.0" encoding="UTF-8"?>
<svg width="14px" height="14px" viewBox="0 0 14 14" version="1.1" xmlns="http://www.w3.org/2000/svg" xmlns:xlink="http://www.w3.org/1999/xlink">
    <!-- Generator: Sketch 42 (36781) - http://www.bohemiancoding.com/sketch -->
    <title>容器网络</title>
    <desc>Created with Sketch.</desc>
    <defs></defs>
    <g id="LIST汇总" stroke="none" stroke-width="1" fill="none" fill-rule="evenodd">
        <g id="sidebar-design" transform="translate(-96.000000, -520.000000)" fill="#ACB5C3">
            <g id="Group-7" transform="translate(96.000000, 519.000000)">
                <g id="容器网络" transform="translate(0.000000, 0.599976)">
                    <path d="M8.80000305,5.05423729 L8.80000305,2.34507632 L11.3460243,3.46276873 L11.3460243,6.20829507 L8.80000305,5.05423729 Z M14.0514258,5.05423729 L11.7000046,6.2 L11.7000046,3.4819235 L14.0514258,2.33616079 L14.0514258,5.05423729 Z M11.4609865,0.700012207 L13.9590331,2.10329913 L11.5246959,3.22981751 L8.96740058,2.10329913 L11.4609865,0.700012207 Z" id="Combined-Shape"></path>
                    <path d="M11.6688372,6.85 C11.6948837,7.0645 11.7209302,7.278675 11.7209302,7.5 C11.7209302,8.851675 11.2,10.080175 10.3534884,11.0035 C10.184186,10.477 9.70232558,10.1 9.11627907,10.1 L8.46511628,10.1 L8.46511628,8.15 C8.46511628,7.7925 8.17209302,7.5 7.81395349,7.5 L3.90697674,7.5 L3.90697674,6.199675 L5.20930233,6.199675 C5.56744186,6.199675 5.86046512,5.907175 5.86046512,5.55 L5.86046512,4.249675 L7.1627907,4.249675 C7.87906977,4.249675 8.46511628,3.664675 8.46511628,2.95 L8.46511628,1.299 C7.84651163,1.103675 7.19534884,1 6.51162791,1 C2.9172093,1 0,3.911675 0,7.5 C0,11.088 2.9172093,13.999675 6.51162791,13.999675 C10.1060465,13.999675 13.0232558,11.088 13.0232558,7.5 C13.0232558,7.278675 13.0102326,7.0645 12.9906977,6.85 L11.6688372,6.85 L11.6688372,6.85 Z M5.86046512,12.654175 C3.28837209,12.336 1.30232558,10.152 1.30232558,7.5 C1.30232558,7.096675 1.3544186,6.713175 1.43906977,6.3365 L4.55813953,9.45 L4.55813953,10.1 C4.55813953,10.814675 5.14418605,11.4 5.86046512,11.4 L5.86046512,12.654175 L5.86046512,12.654175 Z" id="Fill-118"></path>
                </g>
            </g>
        </g>
    </g>
</svg>