<?xml version="1.0" standalone="no"?><!DOCTYPE svg PUBLIC "-//W3C//DTD SVG 1.1//EN" "http://www.w3.org/Graphics/SVG/1.1/DTD/svg11.dtd"><svg class="icon" width="128px" height="128.00px" viewBox="0 0 1024 1024" version="1.1" xmlns="http://www.w3.org/2000/svg"><path d="M920.606 566.703l-75.615-67.267C842.536 317.278 694.256 169.98 511.605 169.98c-78.069 0-149.754 26.514-206.217 71.685l-29.463-26.513c-9.819-8.347-24.549-7.856-32.895 1.963-8.347 9.82-7.856 24.55 1.962 32.896l26.026 23.079 20.129 17.675c12.275 10.8 13.256 29.458 2.456 41.242-7.855 8.841-20.623 12.276-31.426 8.348l-59.411-51.556c-19.147-17.181-49.097-15.219-66.285 3.933-17.18 19.149-15.217 49.095 3.932 66.282l52.043 46.151c-9.329 30.937-14.729 63.831-14.729 98.199 0 184.127 149.261 333.386 333.386 333.386 100.654 0 190.508-44.678 251.883-114.89l36.822 32.405c8.349 7.365 19.641 11.784 30.933 11.784 12.767 0 26.022-5.403 34.861-15.712 17.183-19.15 15.221-49.097-3.929-66.282l-83.47-73.651c-10.308-13.256-10.308-31.917 1.473-45.173 10.804-12.271 28.48-15.218 42.719-7.854l58.917 52.536c5.398 4.911 12.276 7.363 19.64 7.363 7.854 0 16.203-3.436 22.096-9.818 10.804-11.782 9.819-29.949-2.457-40.754h0.005z m0 0" fill="#E6F3FE" /><path d="M224.063 839.882c33.583-7.895 72.481 2.054 95.844 27.657 1.313 1.438 3.228 1.319 4.848 0.626-1.83 0.784 0.494-0.173 0.962-0.347a76.818 76.818 0 0 1 4.584-1.517c4.85-1.462 9.844-2.465 14.887-2.933 14.574-1.352 29.028 2.782 37.96 14.992 3.013 4.118 9.959 0.134 6.908-4.037-16.1-22.009-45.871-23.125-69.339-13.067l4.848 0.626c-25.295-27.721-67.362-38.241-103.628-29.716-5.021 1.182-2.892 8.896 2.126 7.716zM121.594 760.023c15.881-4.631 33.007-6.105 49.452-6.567 38.153-1.069 76.47 6.72 110.57 24.048 25.256 12.834 47.388 30.878 66.095 52.068 1.497 1.695 4.118 1.389 5.657 0 8.951-8.074 22.794-14.399 35.262-17.558 32.116-8.136 63.06 5.674 86.755 27.046 1.292 1.165 3.297 1.642 4.848 0.626 23.288-15.257 46.432-29.896 73.63-37.24 18.248-4.927 37.435-5.976 55.978-2.098 23.311 4.875 43.796 17.82 60.908 34.03 1.277 1.21 3.301 1.599 4.847 0.626 22.356-14.061 43.486-29.092 68.22-38.964 40.04-15.983 83.471-18.219 125.438-9.079 5.029 1.095 7.167-6.617 2.127-7.715-43.043-9.373-87.366-7.301-128.588 8.646-14.892 5.761-29.078 13.15-42.663 21.511-9.698 5.969-18.936 12.634-28.57 18.693l4.847 0.626c-17.521-16.599-38.123-29.598-61.699-35.462-19.494-4.849-39.925-4.007-59.372 0.563-29.285 6.882-54.33 22.702-79.139 38.955l4.848 0.626c-25.577-23.069-57.921-37.086-92.541-29.574-14.48 3.143-29.678 10.062-40.791 20.086h5.657c-31.143-35.277-71.634-60.547-117.415-71.734-30.899-7.551-63.28-8.617-94.725-4.188-7.285 1.025-14.683 2.252-21.76 4.315-4.946 1.441-2.841 9.162 2.124 7.714zM690.381 866.276c7.205-6.817 15.305-12.779 23.6-18.184 14.796-9.641 32.192-18.14 50.277-17.256 5.159 0.252 5.135-7.749 0-8-19.113-0.934-37.486 7.712-53.277 17.683-9.257 5.844-18.29 12.563-26.256 20.101-3.754 3.552 1.912 9.199 5.656 5.656z" fill="#0686F9" /><path d="M600.657 336.952H298.86c-5.645 0-9.874 4.232-9.874 9.869v278.53c0 42.306 33.848 76.154 76.153 76.154h391.352c5.638 0 9.869-4.231 9.869-9.873V309.449c0-4.227-3.524-7.756-7.756-7.756H608.413c-4.23 0-7.756 3.53-7.756 7.756v27.503z m0 0" fill="#B4DAFD" /><path d="M756.491 705.03H365.139c-43.718 0-79.679-35.961-79.679-79.679V347.528c0-7.756 6.348-13.4 13.4-13.4h298.272v-23.974c0-6.343 4.933-11.281 11.281-11.281h150.191c6.349 0 11.285 4.938 11.285 11.281v382.184c0.001 7.051-6.348 12.692-13.398 12.692zM298.86 340.478a6.32 6.32 0 0 0-6.35 6.343v278.53c0 40.192 32.438 72.629 72.629 72.629h391.352a6.322 6.322 0 0 0 6.345-6.348V309.449c0-2.114-2.113-4.227-4.231-4.227H608.413c-2.117 0-4.23 2.113-4.23 4.227v31.029H298.86z m0 0" fill="#0686F9" /><path d="M221.999 418.039c0-5.638 4.231-9.87 9.87-9.87l533.791-1.412v283.467c0 5.638-4.231 9.869-9.874 9.869l-406.864 1.412C279.117 701.505 222 645.094 222 575.283V418.039z m0 0" fill="#E6F3FE" /><path d="M348.215 705.03c-34.55 0-66.985-13.397-91.667-38.074-24.679-24.681-38.075-57.116-38.075-92.378V418.039c0-7.756 6.345-13.394 13.396-13.394l537.315-1.412v286.992c0 7.756-6.348 13.395-13.398 13.395l-407.571 1.41c0.706 0 0.706 0 0 0z m413.914-294.747l-530.26 1.413a6.317 6.317 0 0 0-6.344 6.344v156.539c0 33.143 12.692 64.172 35.962 86.734 23.268 23.269 54.298 35.962 86.729 35.962h0.707l406.864-0.705a6.318 6.318 0 0 0 6.344-6.345V410.283z m0 0" fill="#0686F9" /><path d="M755.079 650.738v42.306c0 1.412-1.407 2.818-2.819 2.818l-408.27 1.412c-38.08 0-71.223-18.331-92.374-46.536h503.463z m0 0" fill="#CDE6FD" /><path d="M634.501 325.667h97.31c2.819 0 5.643 2.824 5.643 5.644 0 2.818-2.823 5.642-5.643 5.642h-97.31c-2.819 0-5.639-2.824-5.639-5.642 0-2.821 2.82-5.644 5.639-5.644z m0 0" fill="#0686F9" /><path d="M634.501 325.667h97.31c2.819 0 5.643 2.824 5.643 5.644 0 2.818-2.823 5.642-5.643 5.642h-97.31c-2.819 0-5.639-2.824-5.639-5.642 0-2.821 2.82-5.644 5.639-5.644z m0 0" fill="#FFFFFF" /><path d="M64.801 210.733v34.55l30.319 17.63 29.616-17.63v-34.55l-29.616-17.63-30.319 17.63z m0 0M339.758 253.743a9.152 9.152 0 0 0 4.582 7.94 9.167 9.167 0 0 0 13.75-7.94c0-3.275-1.746-6.3-4.582-7.94a9.181 9.181 0 0 0-9.168 0 9.159 9.159 0 0 0-4.582 7.94z m0 0M308.023 146.564l-6.345 9.875-11.28 7.05 11.986 6.344 4.938 10.581 7.049-10.581 10.576-6.344-10.576-6.348-6.348-10.577z m0 0M822.07 244.575a31.024 31.024 0 1 0 62.049 0 31.024 31.024 0 1 0-62.049 0z m0 0M925.372 728.79l34.55-16.924-34.55-16.92zM937.005 296.054h-9.164v-9.168c0-3.524-2.823-5.643-5.643-5.643s-5.639 2.824-5.639 5.643v9.168h-9.168c-3.525 0-5.643 2.819-5.643 5.639 0 2.818 2.824 5.642 5.643 5.642h9.168v9.164c0 3.529 2.819 5.643 5.639 5.643s5.643-2.82 5.643-5.643v-9.164h9.164c3.528 0 5.643-2.824 5.643-5.642-0.001-3.526-2.82-5.639-5.643-5.639z" fill="#E6F3FE" /></svg>