<?xml version="1.0" standalone="no"?><!DOCTYPE svg PUBLIC "-//W3C//DTD SVG 1.1//EN" "http://www.w3.org/Graphics/SVG/1.1/DTD/svg11.dtd"><svg t="1513657048112" class="icon" style="" viewBox="0 0 1024 1024" version="1.1" xmlns="http://www.w3.org/2000/svg" p-id="53364" xmlns:xlink="http://www.w3.org/1999/xlink" width="200" height="200"><defs><style type="text/css"></style></defs><path d="M621.168211 115.160672C728.207636 158.317282 803.737895 263.102115 803.737895 385.919745L803.737895 586.393163 812.854705 586.393163C888.380826 586.393163 949.606841 647.772861 949.606841 723.145299L949.606841 859.897435 74.393167 859.897435 74.393167 723.145299C74.393167 647.619178 135.936493 586.393163 211.145303 586.393163L220.262112 586.393163 220.262112 385.919745C220.262112 263.408788 295.916589 158.529463 402.829496 115.260396 406.017981 72.82924 441.777352 39.384615 484.695127 39.384615L539.304881 39.384615C582.546786 39.384615 617.980294 72.510453 621.168211 115.160672L621.168211 115.160672Z" p-id="53365" fill="#749eff"></path><path d="M639.635334 896.364674C639.635334 966.855715 582.491049 1024 512.000004 1024 441.508959 1024 384.364677 966.855715 384.364677 896.364674L639.635334 896.364674 639.635334 896.364674Z" p-id="53366" fill="#749eff"></path></svg>