<?xml version="1.0" standalone="no"?><!DOCTYPE svg PUBLIC "-//W3C//DTD SVG 1.1//EN" "http://www.w3.org/Graphics/SVG/1.1/DTD/svg11.dtd"><svg t="1513652021138" class="icon" style="" viewBox="0 0 1024 1024" version="1.1" xmlns="http://www.w3.org/2000/svg" p-id="8893" xmlns:xlink="http://www.w3.org/1999/xlink" width="200" height="200"><defs><style type="text/css"></style></defs><path d="M511.333 64c-247.424 0-448 200.576-448 448s200.576 448 448 448 448-200.576 448-448-200.576-448-448-448z m0 691.241c-22.145 0-40.097-17.952-40.097-40.097s17.952-40.097 40.097-40.097 40.097 17.952 40.097 40.097-17.952 40.097-40.097 40.097z m53.301-436.968l-19.46 276.393c-0.951 15.811-15.812 28.203-33.823 28.203-18.011 0-32.872-12.391-33.823-28.203l-19.495-276.981c-0.976-16.223 7.755-31.716 23.028-40.862 17.65-10.57 40.801-10.764 58.678-0.494l1.024 0.588c15.772 9.061 24.866 24.816 23.871 41.356z" fill="#fdc918" p-id="8894"></path></svg>