<?xml version="1.0" encoding="UTF-8"?>
<svg width="14px" height="14px" viewBox="0 0 14 14" version="1.1" xmlns="http://www.w3.org/2000/svg" xmlns:xlink="http://www.w3.org/1999/xlink">
    <!-- Generator: Sketch 42 (36781) - http://www.bohemiancoding.com/sketch -->
    <title>控制台</title>
    <desc>Created with Sketch.</desc>
    <defs></defs>
    <g id="LIST汇总" stroke="none" stroke-width="1" fill="none" fill-rule="evenodd">
        <g id="Artboard" transform="translate(-304.000000, -360.000000)" fill="#FFFFFF">
            <g id="Group-3" transform="translate(304.000000, 360.000000)">
                <g id="设置管理">
                    <path d="M4.72073508,12.3696116 C1.75518046,11.1108084 0.371585101,7.68628971 1.63038835,4.72073508 C2.88919161,1.75518046 6.31371029,0.371585101 9.27926492,1.63038835 C12.2448195,2.88919161 13.6284149,6.31371029 12.3696116,9.27926492 C11.1108084,12.2448195 7.68628971,13.6284149 4.72073508,12.3696116 Z M7,10.5715997 C8.97254003,10.5715997 10.5715997,8.97254003 10.5715997,7 C10.5715997,5.02745997 8.97254003,3.42840032 7,3.42840032 C5.02745997,3.42840032 3.42840032,5.02745997 3.42840032,7 C3.42840032,8.97254003 5.02745997,10.5715997 7,10.5715997 Z" id="Oval-5-Copy"></path>
                    <path d="M5.83333333,0.588798523 C5.83333333,0.263614078 6.09195602,0 6.42213186,0 L7.57786814,0 C7.90305259,0 8.16666667,0.258622686 8.16666667,0.588798523 L8.16666667,1.74453481 C8.16666667,2.06971926 7.90804398,2.33333333 7.57786814,2.33333333 L6.42213186,2.33333333 C6.09694741,2.33333333 5.83333333,2.07471065 5.83333333,1.74453481 L5.83333333,0.588798523 L5.83333333,0.588798523 Z M10.7084461,1.64163805 C10.9383863,1.41169792 11.3076634,1.40816848 11.541133,1.64163805 L12.358362,2.45886701 C12.5883021,2.68880714 12.5918315,3.0580843 12.358362,3.29155387 L11.541133,4.10878284 C11.3111929,4.33872296 10.9419157,4.34225241 10.7084461,4.10878284 L9.89121716,3.29155387 C9.66127704,3.06161375 9.65774759,2.69233659 9.89121716,2.45886701 L10.7084461,1.64163805 L10.7084461,1.64163805 Z M13.4112015,5.83333333 C13.7363859,5.83333333 14,6.09195602 14,6.42213186 L14,7.57786814 C14,7.90305259 13.7413773,8.16666667 13.4112015,8.16666667 L12.2554652,8.16666667 C11.9302807,8.16666667 11.6666667,7.90804398 11.6666667,7.57786814 L11.6666667,6.42213186 C11.6666667,6.09694741 11.9252894,5.83333333 12.2554652,5.83333333 L13.4112015,5.83333333 L13.4112015,5.83333333 Z M12.358362,10.7084461 C12.5883021,10.9383863 12.5918315,11.3076634 12.358362,11.541133 L11.541133,12.358362 C11.3111929,12.5883021 10.9419157,12.5918315 10.7084461,12.358362 L9.89121716,11.541133 C9.66127704,11.3111929 9.65774759,10.9419157 9.89121716,10.7084461 L10.7084461,9.89121716 C10.9383863,9.66127704 11.3076634,9.65774759 11.541133,9.89121716 L12.358362,10.7084461 L12.358362,10.7084461 Z M8.16666667,13.4112015 C8.16666667,13.7363859 7.90804398,14 7.57786814,14 L6.42213186,14 C6.09694741,14 5.83333333,13.7413773 5.83333333,13.4112015 L5.83333333,12.2554652 C5.83333333,11.9302807 6.09195602,11.6666667 6.42213186,11.6666667 L7.57786814,11.6666667 C7.90305259,11.6666667 8.16666667,11.9252894 8.16666667,12.2554652 L8.16666667,13.4112015 L8.16666667,13.4112015 Z M3.29155387,12.358362 C3.06161375,12.5883021 2.69233659,12.5918315 2.45886701,12.358362 L1.64163805,11.541133 C1.41169792,11.3111929 1.40816848,10.9419157 1.64163805,10.7084461 L2.45886701,9.89121716 C2.68880714,9.66127704 3.0580843,9.65774759 3.29155387,9.89121716 L4.10878284,10.7084461 C4.33872296,10.9383863 4.34225241,11.3076634 4.10878284,11.541133 L3.29155387,12.358362 L3.29155387,12.358362 Z M0.588798523,8.16666667 C0.263614078,8.16666667 2.72957629e-16,7.90804398 2.12305312e-16,7.57786814 L0,6.42213186 C-5.97354134e-17,6.09694741 0.258622686,5.83333333 0.588798523,5.83333333 L1.74453481,5.83333333 C2.06971926,5.83333333 2.33333333,6.09195602 2.33333333,6.42213186 L2.33333333,7.57786814 C2.33333333,7.90305259 2.07471065,8.16666667 1.74453481,8.16666667 L0.588798523,8.16666667 L0.588798523,8.16666667 Z M1.64163805,3.29155387 C1.41169792,3.06161375 1.40816848,2.69233659 1.64163805,2.45886701 L2.45886701,1.64163805 C2.68880714,1.41169792 3.0580843,1.40816848 3.29155387,1.64163805 L4.10878284,2.45886701 C4.33872296,2.68880714 4.34225241,3.0580843 4.10878284,3.29155387 L3.29155387,4.10878284 C3.06161375,4.33872296 2.69233659,4.34225241 2.45886701,4.10878284 L1.64163805,3.29155387 Z M7,8.75 C6.03350169,8.75 5.25,7.96649831 5.25,7 C5.25,6.03350169 6.03350169,5.25 7,5.25 C7.96649831,5.25 8.75,6.03350169 8.75,7 C8.75,7.96649831 7.96649831,8.75 7,8.75 Z" id="Combined-Shape"></path>
                </g>
            </g>
        </g>
    </g>
</svg>