<svg xmlns="http://www.w3.org/2000/svg" width="14" height="14" viewBox="0 0 14 14">
    <path fill="#BAC1CA" fill-rule="evenodd" d="M3.783 2.133c.623-.41 1.32-.7 2.05-.849V.589c0-.325.259-.589.59-.589h1.155c.325 0 .589.259.589.589v.694a5.86 5.86 0 0 1 2.05.85l.491-.491c.23-.23.6-.234.833 0l.817.817c.23.23.234.6 0 .833l-.491.491c.41.623.7 1.32.849 2.05h.695c.325 0 .589.259.589.59v1.155a.586.586 0 0 1-.589.589h-.694a5.86 5.86 0 0 1-.85 2.05l.491.491c.23.23.234.6 0 .833l-.817.817c-.23.23-.6.234-.833 0l-.491-.491c-.623.41-1.32.7-2.05.849v.695a.586.586 0 0 1-.59.589H6.423a.586.586 0 0 1-.589-.589v-.694a5.86 5.86 0 0 1-2.05-.85l-.491.491c-.23.23-.6.234-.833 0l-.817-.817a.586.586 0 0 1 0-.833l.491-.491c-.41-.623-.7-1.32-.849-2.05H.589A.586.586 0 0 1 0 7.577V6.423c0-.325.259-.589.589-.589h.694a5.86 5.86 0 0 1 .85-2.05l-.491-.491a.586.586 0 0 1 0-.833l.817-.817c.23-.23.6-.234.833 0l.491.491zM7 10.572a3.572 3.572 0 1 0 0-7.144 3.572 3.572 0 0 0 0 7.144zM7 8.75a1.75 1.75 0 1 1 0-3.5 1.75 1.75 0 0 1 0 3.5z"/>
</svg>
