<?xml version="1.0" encoding="UTF-8"?>
<svg width="18px" height="18px" viewBox="0 0 18 18" version="1.1" xmlns="http://www.w3.org/2000/svg" xmlns:xlink="http://www.w3.org/1999/xlink">
    <!-- Generator: Sketch 42 (36781) - http://www.bohemiancoding.com/sketch -->
    <title>Fill 22</title>
    <desc>Created with Sketch.</desc>
    <defs></defs>
    <g id="5月-框架redesign" stroke="none" stroke-width="1" fill="none" fill-rule="evenodd">
        <g id="IDEA-2:-CONTENT+SIDEBARS-Copy-5" transform="translate(-1276.000000, -22.000000)">
            <g id="Group-14" transform="translate(1276.000000, 22.000000)">
                <path d="M15.3332869,2.59963918 L11.849936,2.59963918 C11.4999722,1.67192864 10.5833009,1 9.5,1 C8.41669915,1 7.50002784,1.67192864 7.15006403,2.59963918 L3.66671307,2.59963918 C2.75004176,2.59963918 2,3.31967727 2,4.19967927 L2,15.3999599 C2,16.2799619 2.75004176,17 3.66671307,17 L15.3332869,17 C16.2499582,17 17,16.2799619 17,15.3999599 L17,4.19967927 C17,3.31967727 16.2499582,2.59963918 15.3332869,2.59963918 L15.3332869,2.59963918 Z M9.5,2.59963918 C9.95812684,2.59963918 10.3331477,2.95965822 10.3331477,3.39985968 C10.3331477,3.84006114 9.95812684,4.19967927 9.5,4.19967927 C9.04145554,4.19967927 8.66643466,3.84006114 8.66643466,3.39985968 C8.66643466,2.95965822 9.04145554,2.59963918 9.5,2.59963918 L9.5,2.59963918 Z M7.83328693,13.7999198 L4.49986079,10.5998396 L5.67503759,9.47167306 L7.83328693,11.5359693 L13.3249624,6.26397554 L14.5001392,7.39975945 L7.83328693,13.7999198 L7.83328693,13.7999198 Z" id="Fill-22" fill="#FFFFFF"></path>
                <path d="M15.3332869,2.59963918 L11.849936,2.59963918 C11.4999722,1.67192864 10.5833009,1 9.5,1 C8.41669915,1 7.50002784,1.67192864 7.15006403,2.59963918 L3.66671307,2.59963918 C2.75004176,2.59963918 2,3.31967727 2,4.19967927 L2,15.3999599 C2,16.2799619 2.75004176,17 3.66671307,17 L15.3332869,17 C16.2499582,17 17,16.2799619 17,15.3999599 L17,4.19967927 C17,3.31967727 16.2499582,2.59963918 15.3332869,2.59963918 L15.3332869,2.59963918 Z M9.5,2.59963918 C9.95812684,2.59963918 10.3331477,2.95965822 10.3331477,3.39985968 C10.3331477,3.84006114 9.95812684,4.19967927 9.5,4.19967927 C9.04145554,4.19967927 8.66643466,3.84006114 8.66643466,3.39985968 C8.66643466,2.95965822 9.04145554,2.59963918 9.5,2.59963918 L9.5,2.59963918 Z M7.83328693,13.7999198 L4.49986079,10.5998396 L5.67503759,9.47167306 L7.83328693,11.5359693 L13.3249624,6.26397554 L14.5001392,7.39975945 L7.83328693,13.7999198 L7.83328693,13.7999198 Z" id="Fill-22" fill="#86939E"></path>
            </g>
        </g>
    </g>
</svg>