<?xml version="1.0" standalone="no"?><!DOCTYPE svg PUBLIC "-//W3C//DTD SVG 1.1//EN" "http://www.w3.org/Graphics/SVG/1.1/DTD/svg11.dtd"><svg t="1514183981235" class="icon" style="" viewBox="0 0 1024 1024" version="1.1" xmlns="http://www.w3.org/2000/svg" p-id="41678" xmlns:xlink="http://www.w3.org/1999/xlink" width="200" height="200"><defs><style type="text/css"></style></defs><path d="M883.79392 253.568H335.42144c-31.42656 0-56.99584 25.56928-56.99584 56.99584v579.712c0 31.42656 25.56928 56.99584 56.99584 56.99584h548.36736c31.42656 0 56.99584-25.56928 56.99584-56.99584V310.56384c0.00512-31.42656-25.56416-56.99584-56.99072-56.99584z m4.992 636.70784a5.00224 5.00224 0 0 1-4.99712 4.99712H335.42144a5.00224 5.00224 0 0 1-4.99712-4.99712V310.56384a5.00224 5.00224 0 0 1 4.99712-4.99712h548.36736a5.00224 5.00224 0 0 1 4.99712 4.99712v579.712z" fill="#ADB5C2" p-id="41679"></path><path d="M772.8128 418.1504H446.40256a26.00448 26.00448 0 0 0 0 51.99872h326.41024a25.99936 25.99936 0 0 0 0-51.99872z m0 156.27264H446.40256a26.00448 26.00448 0 0 0 0 51.99872h326.41024a25.99936 25.99936 0 0 0 0-51.99872z m0 156.27264H446.40256a26.00448 26.00448 0 0 0 0 51.99872h326.41024a25.99936 25.99936 0 0 0 0-51.99872z" fill="#ADB5C2" p-id="41680"></path><path d="M229.1456 748.00128h-88.9344a5.00224 5.00224 0 0 1-4.99712-4.99712V163.29216a5.00224 5.00224 0 0 1 4.99712-4.99712h548.36736a5.00224 5.00224 0 0 1 4.99712 4.99712v44.84096a26.00448 26.00448 0 0 0 51.99872 0v-44.84096c0-31.42656-25.56928-56.99584-56.99584-56.99584H140.2112c-31.42656 0-56.99584 25.56928-56.99584 56.99584v579.712c0 31.42656 25.56928 56.99584 56.99584 56.99584h88.9344a26.00448 26.00448 0 0 0 0-51.99872z" fill="#ADB5C2" p-id="41681"></path></svg>