<?xml version="1.0" standalone="no"?><!DOCTYPE svg PUBLIC "-//W3C//DTD SVG 1.1//EN" "http://www.w3.org/Graphics/SVG/1.1/DTD/svg11.dtd"><svg t="1514171840236" class="icon" style="" viewBox="0 0 1024 1024" version="1.1" xmlns="http://www.w3.org/2000/svg" p-id="22694" xmlns:xlink="http://www.w3.org/1999/xlink" width="200" height="200"><defs><style type="text/css"></style></defs><path d="M979.2 708 928 708l0-76.8c0-102.4-51.2-179.2-153.6-179.2L544 452 544 362.4l83.2 0c25.6 0 44.8-19.2 44.8-44.8L672 112.8c0-25.6-19.2-44.8-44.8-44.8L364.8 68c-25.6 0-44.8 19.2-44.8 44.8l0 198.4c0 25.6 19.2 44.8 44.8 44.8L448 356l0 96L230.4 452C128 452 96 535.2 96 631.2l0 76.8L44.8 708c-25.6 0-44.8 19.2-44.8 44.8l0 166.4c0 25.6 19.2 44.8 44.8 44.8l166.4 0c25.6 0 44.8-19.2 44.8-44.8L256 752.8c0-25.6-19.2-44.8-44.8-44.8L160 708 160 605.6l0 0c0 0-6.4-89.6 108.8-89.6L448 516l0 192-51.2 0c-25.6 0-44.8 19.2-44.8 44.8l0 166.4c0 25.6 19.2 44.8 44.8 44.8l198.4 0c25.6 0 44.8-19.2 44.8-44.8L640 752.8c0-25.6-19.2-44.8-44.8-44.8L544 708l0-192 211.2 0c83.2 0 106.4 40 108.8 89.6l0 0 0 102.4-51.2 0c-25.6 0-44.8 19.2-44.8 44.8l0 166.4c0 25.6 19.2 44.8 44.8 44.8l166.4 0c25.6 0 44.8-19.2 44.8-44.8L1024 752.8C1024 733.6 1004.8 708 979.2 708L979.2 708zM384 292 384 138.4l224 0 0 153.6L384 292 384 292zM384 292" p-id="22695" fill="#ADB5C2"></path></svg>