<?xml version="1.0" standalone="no"?><!DOCTYPE svg PUBLIC "-//W3C//DTD SVG 1.1//EN" "http://www.w3.org/Graphics/SVG/1.1/DTD/svg11.dtd"><svg class="icon" width="18px" height="18.00px" viewBox="0 0 1024 1024" version="1.1" xmlns="http://www.w3.org/2000/svg"><path d="M736.804 448.468c3.26-257.385-208.513-374.677-224.807-384.45-13.029 6.516-228.062 123.804-224.801 384.45-42.357 29.323-87.969 78.195-81.452 162.903 6.516 84.708 91.225 143.354 123.804 140.098 32.584-3.26 22.805-26.067 22.805-26.067l9.778-45.613s48.868 71.68 61.9 71.68h175.933c16.29 0 61.902-71.68 61.902-71.68l9.777 45.613s-9.777 22.807 22.805 26.067c32.58 3.256 117.288-55.39 123.805-140.098 6.518-84.708-39.092-133.58-81.449-162.903z m-224.807-3.257c-6.511 0-84.708-3.261-94.48-94.486 3.255-87.968 87.968-94.48 94.48-97.741 6.517 0 91.23 9.773 94.486 97.74-9.774 91.227-87.969 94.487-94.486 94.487z m0 0M463.129 891.563c0 9.772-9.774 19.549-19.55 19.549-9.773 0-19.546-9.777-19.546-19.55v-94.481c0-9.777 9.773-19.55 19.546-19.55 9.776 0 19.55 9.773 19.55 19.55v94.482z m0 0M534.804 940.436c0 9.772-9.773 19.546-19.546 19.546-9.772 0-19.55-9.774-19.55-19.546V800.338c0-9.773 9.778-19.55 19.55-19.55 9.773 0 19.546 9.777 19.546 19.55v140.098z m0 0M599.966 868.756c0 9.774-9.772 19.55-19.546 19.55-9.776 0-19.549-9.776-19.549-19.55v-68.418c0-9.773 9.773-19.55 19.55-19.55 9.773 0 19.545 9.777 19.545 19.55v68.418z m0 0" fill="#5cb860" /></svg>