<?xml version="1.0" encoding="UTF-8"?>
<svg width="14px" height="14px" viewBox="0 0 14 14" version="1.1" xmlns="http://www.w3.org/2000/svg" xmlns:xlink="http://www.w3.org/1999/xlink">
    <!-- Generator: Sketch 42 (36781) - http://www.bohemiancoding.com/sketch -->
    <title>存储卷</title>
    <desc>Created with Sketch.</desc>
    <defs></defs>
    <g id="LIST汇总" stroke="none" stroke-width="1" fill="none" fill-rule="evenodd">
        <g id="Artboard" transform="translate(-272.000000, -387.000000)" fill="#FFFFFF">
            <g id="Group-16" transform="translate(272.000000, 387.000000)">
                <path d="M0,1.55542568 L0,12.4441847 C0,13.2998247 0.691992987,14 1.55542568,14 L12.4441847,14 C13.2998247,14 14,13.2998247 14,12.4441847 L14,1.55542568 C14,0.6997857 13.2998247,0 12.4441847,0 L1.55542568,0 C0.691992987,0 0,0.6997857 0,1.55542568 L0,1.55542568 Z M9.33333333,4.66666667 C9.33333333,5.95752971 8.29105786,6.99980518 6.99980518,6.99980518 C5.70894214,6.99980518 4.66666667,5.95752971 4.66666667,4.66666667 C4.66666667,3.37541399 5.70894214,2.33313852 6.99980518,2.33313852 C8.29105786,2.33313852 9.33333333,3.37541399 9.33333333,4.66666667 L9.33333333,4.66666667 Z M2.33313852,10.888759 C2.33313852,9.33333333 5.44437951,8.47769336 6.99980518,8.47769336 C8.55562049,8.47769336 11.6664718,9.33333333 11.6664718,10.888759 L11.6664718,11.6664718 L2.33313852,11.6664718 L2.33313852,10.888759 L2.33313852,10.888759 Z" id="用户"></path>
            </g>
        </g>
    </g>
</svg>